<svg width="260" height="260" viewBox="0 0 260 260" fill="none" xmlns="http://www.w3.org/2000/svg">
<g filter="url(#filter0_i_932_239)">
<path d="M134.191 70.6732C126.989 78.442 123.271 88.7224 119.226 98.5088C115.18 108.295 110.188 118.305 101.473 124.332C95.2849 128.612 85.7169 126.61 79.0349 130.052C68.2761 135.626 64.0069 140.353 61.4121 152.188C58.3233 166.26 81.8377 202.155 104.463 210.538C118.331 215.67 137.696 213.101 148.45 202.956C159.203 192.811 157.456 172.973 159.26 158.298C160.566 147.727 159.879 136.75 163.483 126.729C166.676 117.853 173.051 110.339 175.916 101.348C179.728 89.388 176.353 73.4604 166.483 65.1144C156.79 56.9348 142.017 62.2232 134.191 70.6732Z" fill="#06283D"/>
<g opacity="0.9">
<path d="M134.191 70.6732C126.989 78.442 123.271 88.7224 119.226 98.5088C115.18 108.295 110.188 118.305 101.473 124.332C95.2849 128.612 85.7169 126.61 79.0349 130.052C68.2761 135.626 64.0069 140.353 61.4121 152.188C58.3233 166.26 81.8377 202.155 104.463 210.538C118.331 215.67 137.696 213.101 148.45 202.956C159.203 192.811 157.456 172.973 159.26 158.298C160.566 147.727 159.879 136.75 163.483 126.729C166.676 117.853 173.051 110.339 175.916 101.348C179.728 89.388 176.353 73.4604 166.483 65.1144C156.79 56.9348 142.017 62.2232 134.191 70.6732Z" fill="white" stroke="white" stroke-miterlimit="10"/>
</g>
<path d="M130 230.147C185.683 230.147 230.823 227.511 230.823 224.26C230.823 221.009 185.683 218.374 130 218.374C74.3172 218.374 29.1772 221.009 29.1772 224.26C29.1772 227.511 74.3172 230.147 130 230.147Z" fill="#F5F5F5"/>
<path d="M76.6846 126.504C81.4787 121.496 80.9353 113.195 75.471 107.964C70.0066 102.733 61.6906 102.553 56.8965 107.56C52.1024 112.568 52.6458 120.869 58.1101 126.1C63.5745 131.331 71.8906 131.511 76.6846 126.504Z" fill="#06283D"/>
<g opacity="0.8">
<path d="M76.6846 126.504C81.4787 121.496 80.9353 113.195 75.471 107.964C70.0066 102.733 61.6906 102.553 56.8965 107.56C52.1024 112.568 52.6458 120.869 58.1101 126.1C63.5745 131.331 71.8906 131.511 76.6846 126.504Z" fill="white"/>
</g>
<path d="M60.6789 108.805C60.5698 108.805 60.4634 108.77 60.3749 108.707C60.2863 108.643 60.2201 108.553 60.1856 108.449C60.1511 108.346 60.15 108.234 60.1826 108.13C60.2151 108.025 60.2796 107.934 60.3669 107.869C62.1179 106.612 64.2284 105.955 66.3833 105.997C66.5212 105.997 66.6535 106.052 66.751 106.149C66.8486 106.247 66.9033 106.379 66.9033 106.517C66.9033 106.655 66.8486 106.787 66.751 106.884C66.6535 106.982 66.5212 107.037 66.3833 107.037C64.4533 106.994 62.5614 107.578 60.9909 108.701C60.9009 108.768 60.7914 108.805 60.6789 108.805Z" fill="#06283D"/>
<path d="M63.1386 126.693C63.0533 126.692 62.9693 126.671 62.8942 126.63C61.3006 125.778 59.9178 124.58 58.8471 123.125C57.7764 121.669 57.0449 119.992 56.7062 118.217C56.3758 116.681 56.3911 115.092 56.7508 113.563C57.1106 112.034 57.8058 110.604 58.7862 109.377C58.8745 109.271 59.0013 109.204 59.1388 109.191C59.2763 109.178 59.4132 109.221 59.5194 109.309C59.6256 109.397 59.6924 109.524 59.7051 109.662C59.7178 109.799 59.6753 109.936 59.587 110.042C58.7014 111.153 58.0743 112.447 57.7514 113.831C57.4285 115.214 57.4178 116.652 57.7202 118.04C58.0318 119.663 58.7013 121.196 59.68 122.527C60.6587 123.858 61.9219 124.955 63.3778 125.736C63.4795 125.791 63.56 125.878 63.6066 125.984C63.6533 126.089 63.6634 126.208 63.6353 126.32C63.6073 126.432 63.5428 126.531 63.4519 126.603C63.361 126.674 63.249 126.713 63.1334 126.714L63.1386 126.693Z" fill="#06283D"/>
<path d="M68.3436 128.05C67.1797 128.045 66.0236 127.859 64.9168 127.499C64.8516 127.477 64.7912 127.444 64.739 127.399C64.6869 127.355 64.644 127.3 64.6129 127.239C64.5817 127.178 64.5629 127.111 64.5575 127.043C64.5521 126.975 64.5602 126.906 64.5814 126.841C64.6026 126.776 64.6364 126.715 64.6809 126.663C64.7254 126.611 64.7798 126.568 64.8409 126.537C64.9019 126.506 64.9686 126.487 65.0369 126.482C65.1053 126.476 65.174 126.484 65.2392 126.505C68.4372 127.545 71.63 126.963 73.996 124.945C75.1963 123.886 76.1034 122.535 76.6299 121.023C77.1563 119.511 77.2844 117.889 77.0016 116.313C76.9796 116.176 77.0132 116.034 77.0951 115.921C77.177 115.808 77.3005 115.732 77.4384 115.71C77.5763 115.688 77.7174 115.722 77.8305 115.804C77.9436 115.886 78.0196 116.009 78.0416 116.147C78.3569 117.898 78.2137 119.701 77.6259 121.38C77.0382 123.06 76.026 124.558 74.6876 125.731C72.9242 127.248 70.6696 128.072 68.3436 128.05Z" fill="#06283D"/>
<path d="M77.09 114.982C76.9797 114.982 76.8724 114.946 76.7836 114.881C76.6948 114.816 76.6291 114.724 76.596 114.618C76.1177 113.142 75.3346 111.782 74.2972 110.627C73.2599 109.473 71.9916 108.549 70.5744 107.916C70.4475 107.86 70.3478 107.757 70.297 107.628C70.2463 107.5 70.2488 107.356 70.304 107.229C70.3592 107.102 70.4625 107.003 70.5912 106.952C70.7199 106.901 70.8635 106.904 70.9904 106.959C72.5424 107.653 73.9313 108.665 75.0672 109.93C76.203 111.194 77.0605 112.684 77.584 114.301C77.6267 114.432 77.6156 114.575 77.5532 114.698C77.4908 114.82 77.3822 114.914 77.2512 114.956C77.1989 114.972 77.1447 114.981 77.09 114.982Z" fill="#06283D"/>
<path d="M68.8948 107.328C68.8551 107.333 68.8149 107.333 68.7752 107.328C67.9927 107.146 67.1919 107.053 66.3884 107.052C66.2505 107.052 66.1182 106.997 66.0207 106.9C65.9232 106.802 65.8684 106.67 65.8684 106.532C65.8684 106.394 65.9232 106.262 66.0207 106.165C66.1182 106.067 66.2505 106.012 66.3884 106.012C67.2639 106.015 68.1363 106.118 68.9884 106.319C69.1263 106.335 69.2523 106.405 69.3386 106.514C69.4249 106.622 69.4645 106.761 69.4486 106.899C69.4327 107.037 69.3628 107.163 69.254 107.249C69.1453 107.335 69.0067 107.375 68.8688 107.359L68.8948 107.328Z" fill="#06283D"/>
<path d="M59.722 119.751C59.6158 119.751 59.512 119.719 59.4246 119.658C59.3372 119.598 59.2704 119.512 59.2332 119.413C58.7458 118.154 58.5744 116.796 58.7339 115.456C58.8935 114.116 59.3792 112.836 60.1484 111.727C60.8756 110.677 61.8495 109.821 62.9847 109.236C64.1199 108.65 65.3816 108.352 66.6588 108.368C66.7967 108.368 66.929 108.423 67.0265 108.52C67.124 108.618 67.1788 108.75 67.1788 108.888C67.1788 109.026 67.124 109.158 67.0265 109.255C66.929 109.353 66.7967 109.408 66.6588 109.408C65.5491 109.395 64.4529 109.653 63.4659 110.161C62.4789 110.668 61.631 111.41 60.996 112.32C60.3214 113.296 59.897 114.423 59.7601 115.602C59.6232 116.781 59.778 117.975 60.2108 119.08C60.2579 119.209 60.2521 119.351 60.1946 119.476C60.1371 119.601 60.0327 119.697 59.904 119.745C59.8441 119.757 59.7826 119.759 59.722 119.751Z" fill="#06283D"/>
<path d="M67.9692 125.689C66.4106 125.637 64.8876 125.209 63.5296 124.443C62.1716 123.676 61.0188 122.593 60.1692 121.285C60.1061 121.17 60.0887 121.035 60.1205 120.908C60.1523 120.781 60.231 120.671 60.3408 120.599C60.4505 120.527 60.5833 120.5 60.7125 120.522C60.8418 120.544 60.9579 120.614 61.0376 120.718C61.7928 121.881 62.8168 122.846 64.0233 123.53C65.2298 124.214 66.5832 124.598 67.9692 124.649C68.1071 124.649 68.2394 124.704 68.3369 124.801C68.4345 124.899 68.4892 125.031 68.4892 125.169C68.4892 125.307 68.4345 125.439 68.3369 125.537C68.2394 125.634 68.1071 125.689 67.9692 125.689Z" fill="#06283D"/>
<path d="M69.9141 125.466C69.7953 125.469 69.6789 125.432 69.5843 125.36C69.4897 125.288 69.4226 125.186 69.3941 125.07C69.3611 124.937 69.3825 124.795 69.4537 124.677C69.5249 124.559 69.64 124.474 69.7737 124.441C73.9909 123.401 75.0829 119.704 74.7345 116.865C74.2821 113.162 71.3597 109.413 66.6433 109.408C66.5054 109.408 66.3731 109.353 66.2756 109.256C66.1781 109.158 66.1233 109.026 66.1233 108.888C66.1233 108.75 66.1781 108.618 66.2756 108.52C66.3731 108.423 66.5054 108.368 66.6433 108.368C71.9629 108.368 75.2597 112.58 75.7693 116.74C76.2893 121.03 74.0377 124.452 70.0233 125.45C69.9875 125.459 69.9509 125.464 69.9141 125.466Z" fill="#06283D"/>
<path d="M64.5322 112.278C64.4336 112.278 64.3373 112.249 64.2544 112.195C64.1715 112.142 64.1056 112.066 64.0642 111.977C64.0056 111.852 63.999 111.709 64.0458 111.579C64.0926 111.449 64.189 111.344 64.3138 111.285C65.111 110.932 65.9746 110.755 66.8462 110.765C66.9841 110.765 67.1163 110.82 67.2139 110.917C67.3114 111.015 67.3662 111.147 67.3662 111.285C67.3662 111.423 67.3114 111.555 67.2139 111.653C67.1163 111.75 66.9841 111.805 66.8462 111.805C66.1285 111.806 65.4192 111.96 64.7662 112.257C64.6908 112.282 64.6107 112.289 64.5322 112.278Z" fill="#06283D"/>
<path d="M67.8756 123.266C66.5586 123.245 65.2753 122.847 64.1777 122.118C63.08 121.39 62.2141 120.363 61.6824 119.158C60.606 116.813 60.9232 114.363 62.53 112.595C62.6232 112.494 62.7527 112.434 62.8902 112.428C63.0276 112.423 63.1617 112.471 63.2632 112.564C63.3643 112.657 63.4244 112.787 63.4302 112.924C63.4361 113.062 63.3872 113.196 63.2944 113.297C62.6483 114.028 62.2388 114.938 62.12 115.906C62.0012 116.874 62.1786 117.856 62.6288 118.721C63.0884 119.771 63.8465 120.664 64.8089 121.287C65.7713 121.91 66.8956 122.236 68.042 122.226C68.9093 122.22 69.7562 121.962 70.4806 121.485C71.2049 121.008 71.7757 120.332 72.124 119.537C72.5157 118.6 72.6337 117.572 72.4643 116.57C72.295 115.569 71.8452 114.636 71.1672 113.88C71.1228 113.828 71.0891 113.768 71.0679 113.703C71.0468 113.638 71.0386 113.569 71.044 113.501C71.0493 113.433 71.0679 113.367 71.0989 113.306C71.1299 113.245 71.1725 113.191 71.2244 113.147C71.2763 113.102 71.3364 113.069 71.4014 113.047C71.4663 113.026 71.5348 113.018 71.6029 113.023C71.6709 113.029 71.7373 113.047 71.7982 113.078C71.859 113.109 71.9132 113.152 71.9576 113.204C72.7648 114.109 73.2984 115.225 73.4963 116.422C73.6942 117.619 73.5483 118.847 73.0756 119.964C72.6489 120.938 71.9498 121.769 71.0624 122.356C70.175 122.942 69.137 123.26 68.0732 123.271L67.8756 123.266Z" fill="#06283D"/>
<path d="M70.065 112.736C69.9668 112.736 69.8708 112.707 69.7894 112.653C68.9113 112.087 67.8903 111.784 66.8462 111.779C66.7083 111.779 66.576 111.724 66.4785 111.627C66.381 111.529 66.3262 111.397 66.3262 111.259C66.3262 111.121 66.381 110.989 66.4785 110.891C66.576 110.794 66.7083 110.739 66.8462 110.739C68.0882 110.744 69.3028 111.105 70.3458 111.779C70.44 111.84 70.512 111.93 70.551 112.035C70.5901 112.14 70.5942 112.255 70.5626 112.362C70.531 112.47 70.4655 112.564 70.3758 112.632C70.2861 112.699 70.1771 112.736 70.065 112.736Z" fill="#06283D"/>
<path d="M67.6 120.921C66.9924 120.917 66.3931 120.779 65.8442 120.519C65.2953 120.258 64.8101 119.881 64.4228 119.413C63.923 118.841 63.5984 118.137 63.4878 117.385C63.3771 116.634 63.4851 115.866 63.7988 115.175C64.0788 114.547 64.5371 114.015 65.1167 113.645C65.6963 113.275 66.3718 113.084 67.0592 113.095C67.1971 113.095 67.3294 113.149 67.4269 113.247C67.5244 113.344 67.5792 113.477 67.5792 113.615C67.5792 113.753 67.5244 113.885 67.4269 113.982C67.3294 114.08 67.1971 114.135 67.0592 114.135C66.573 114.126 66.0947 114.259 65.6835 114.519C65.2723 114.779 64.9461 115.153 64.7452 115.596C64.5166 116.107 64.4396 116.672 64.5235 117.225C64.6074 117.779 64.8486 118.296 65.2184 118.716C65.5865 119.167 66.0752 119.504 66.6276 119.688C67.1799 119.872 67.7732 119.896 68.3384 119.756C68.7982 119.652 69.2186 119.419 69.5496 119.083C69.8805 118.748 70.1081 118.324 70.2052 117.863C70.235 117.729 70.3169 117.612 70.4329 117.538C70.5489 117.464 70.6896 117.438 70.824 117.468C70.891 117.482 70.9545 117.509 71.0109 117.548C71.0674 117.587 71.1156 117.637 71.1528 117.694C71.19 117.752 71.2154 117.816 71.2277 117.883C71.24 117.951 71.2389 118.02 71.2244 118.087C71.0867 118.737 70.7659 119.335 70.2997 119.81C69.8335 120.284 69.2414 120.616 68.5932 120.765C68.2695 120.856 67.9361 120.908 67.6 120.921Z" fill="#06283D"/>
<path d="M70.6266 116.802C70.5119 116.808 70.3987 116.775 70.3046 116.709C70.2105 116.643 70.1409 116.548 70.1066 116.438C69.8991 115.787 69.4935 115.216 68.9463 114.806C68.3992 114.396 67.7378 114.167 67.0542 114.15C66.9163 114.15 66.784 114.096 66.6865 113.998C66.589 113.901 66.5342 113.768 66.5342 113.63C66.5342 113.492 66.589 113.36 66.6865 113.263C66.784 113.165 66.9163 113.11 67.0542 113.11C67.9583 113.13 68.8336 113.432 69.5587 113.972C70.2837 114.513 70.8223 115.266 71.0998 116.126C71.1208 116.192 71.1287 116.26 71.1231 116.329C71.1174 116.397 71.0984 116.463 71.067 116.524C71.0356 116.585 70.9924 116.639 70.94 116.683C70.8877 116.727 70.8271 116.761 70.7618 116.782C70.7178 116.794 70.6724 116.801 70.6266 116.802Z" fill="#06283D"/>
<path d="M67.7406 118.757C67.6027 118.757 67.4704 118.703 67.3729 118.605C67.2754 118.508 67.2206 118.375 67.2206 118.237C67.2206 118.1 67.2754 117.967 67.3729 117.87C67.4704 117.772 67.6027 117.717 67.7406 117.717C67.8116 117.718 67.8819 117.703 67.9471 117.675C68.0123 117.647 68.0711 117.606 68.1198 117.554C68.1685 117.503 68.2061 117.442 68.2304 117.375C68.2546 117.308 68.2649 117.237 68.2606 117.166C68.2634 117.065 68.246 116.964 68.2095 116.87C68.1729 116.775 68.118 116.689 68.0478 116.616C67.9777 116.543 67.8937 116.485 67.8008 116.444C67.7079 116.404 67.6079 116.382 67.5066 116.381C67.4303 116.383 67.3552 116.4 67.2856 116.431C67.216 116.463 67.1532 116.507 67.101 116.563C67.0477 116.626 67.0074 116.699 66.9824 116.777C66.9574 116.856 66.9483 116.939 66.9554 117.021C66.9595 117.089 66.9501 117.157 66.9278 117.222C66.9054 117.287 66.8706 117.346 66.8252 117.397C66.7798 117.449 66.7248 117.49 66.6632 117.52C66.6017 117.55 66.5349 117.568 66.4666 117.572C66.3983 117.576 66.3299 117.567 66.2652 117.544C66.2006 117.522 66.141 117.487 66.0898 117.442C66.0386 117.396 65.9969 117.341 65.9669 117.28C65.937 117.218 65.9195 117.151 65.9154 117.083C65.8969 116.865 65.9232 116.645 65.9927 116.438C66.0622 116.23 66.1734 116.039 66.3195 115.875C66.4656 115.712 66.6435 115.581 66.8423 115.489C67.041 115.397 67.2565 115.347 67.4754 115.341C67.7134 115.342 67.949 115.39 68.1684 115.482C68.3878 115.574 68.5867 115.709 68.7535 115.879C68.9204 116.049 69.0519 116.25 69.1405 116.471C69.229 116.692 69.2729 116.928 69.2694 117.166C69.2736 117.374 69.2363 117.58 69.1597 117.773C69.0832 117.966 68.9689 118.141 68.8237 118.29C68.6784 118.438 68.505 118.555 68.3137 118.636C68.1224 118.716 67.9169 118.758 67.7094 118.757H67.7406Z" fill="#06283D"/>
<path d="M81.1201 117.026C81.7545 124.269 76.3933 130.14 69.1601 130.14H68.5985C75.4937 129.787 80.5014 124.056 79.8878 117.041C79.5334 113.608 77.9762 110.41 75.4915 108.014C73.0068 105.618 69.7548 104.178 66.3105 103.948C66.4925 103.948 66.6797 103.948 66.8669 103.948C74.1209 103.917 80.5065 109.787 81.1201 117.026Z" fill="#06283D"/>
<g opacity="0.4">
<path d="M81.1201 117.026C81.7545 124.269 76.3933 130.14 69.1601 130.14H68.5985C75.4937 129.787 80.5014 124.056 79.8878 117.041C79.5334 113.608 77.9762 110.41 75.4915 108.014C73.0068 105.618 69.7548 104.178 66.3105 103.948C66.4925 103.948 66.6797 103.948 66.8669 103.948C74.1209 103.917 80.5065 109.787 81.1201 117.026Z" fill="white"/>
</g>
<path d="M91.7384 53.1128C91.7511 53.2681 91.772 53.4225 91.8008 53.5756C91.9969 54.5775 92.5112 55.4894 93.2672 56.1756C94.1237 56.9776 95.2502 57.4286 96.4236 57.4392H140.358C140.871 57.4496 141.381 57.3578 141.858 57.1693C142.335 56.9809 142.77 56.6994 143.137 56.3413C143.504 55.9832 143.797 55.5557 143.997 55.0836C144.198 54.6114 144.303 54.1041 144.305 53.5912C144.313 53.437 144.313 53.2826 144.305 53.1284C144.183 51.9641 143.64 50.8845 142.778 50.0919C141.917 49.2992 140.796 48.848 139.625 48.8228H95.68C95.1291 48.8117 94.5821 48.9179 94.0754 49.1343C93.5687 49.3508 93.1139 49.6726 92.7411 50.0783C92.3683 50.4841 92.0861 50.9645 91.9132 51.4877C91.7403 52.0109 91.6807 52.5648 91.7384 53.1128Z" fill="#06283D"/>
<path opacity="0.8" d="M91.7384 53.1128C91.7511 53.2681 91.772 53.4225 91.8008 53.5756C91.9969 54.5775 92.5112 55.4894 93.2672 56.1756C94.1237 56.9776 95.2502 57.4286 96.4236 57.4392H140.358C140.871 57.4496 141.381 57.3578 141.858 57.1693C142.335 56.9809 142.77 56.6994 143.137 56.3413C143.504 55.9832 143.797 55.5557 143.997 55.0836C144.198 54.6114 144.303 54.1041 144.305 53.5912C144.313 53.437 144.313 53.2826 144.305 53.1284C144.183 51.9641 143.64 50.8845 142.778 50.0919C141.917 49.2992 140.796 48.848 139.625 48.8228H95.68C95.1291 48.8117 94.5821 48.9179 94.0754 49.1343C93.5687 49.3508 93.1139 49.6726 92.7411 50.0783C92.3683 50.4841 92.0861 50.9645 91.9132 51.4877C91.7403 52.0109 91.6807 52.5648 91.7384 53.1128Z" fill="white"/>
<path d="M144.305 53.5601C144.305 53.6993 144.295 53.8384 144.274 53.9761C144.119 52.8382 143.562 51.7933 142.704 51.0303C141.845 50.2673 140.742 49.8366 139.594 49.8161L92.8823 49.9201C93.2526 49.5599 93.6903 49.2762 94.1704 49.0853C94.6504 48.8943 95.1634 48.7999 95.6799 48.8073H139.615C140.785 48.8325 141.906 49.2837 142.768 50.0763C143.629 50.869 144.172 51.9486 144.295 53.1129C144.305 53.2617 144.309 53.4109 144.305 53.5601Z" fill="#06283D"/>
<path opacity="0.5" d="M144.305 53.5601C144.305 53.6993 144.295 53.8384 144.274 53.9761C144.119 52.8382 143.562 51.7933 142.704 51.0303C141.845 50.2673 140.742 49.8366 139.594 49.8161L92.8823 49.9201C93.2526 49.5599 93.6903 49.2762 94.1704 49.0853C94.6504 48.8943 95.1634 48.7999 95.6799 48.8073H139.615C140.785 48.8325 141.906 49.2837 142.768 50.0763C143.629 50.869 144.172 51.9486 144.295 53.1129C144.305 53.2617 144.309 53.4109 144.305 53.5601Z" fill="white"/>
<path d="M136.76 50.8871L136.947 52.9671L138.902 52.2391L139.365 53.2791L137.368 53.9447L138.804 55.7075L137.904 56.3679L136.505 54.5375L135.465 56.3679L134.482 55.7075L135.59 53.9447L133.51 53.2791L133.791 52.2391L135.897 52.9411L135.71 50.8611L136.76 50.8871Z" fill="#06283D"/>
<path d="M124.722 50.8871L124.909 52.9671L126.864 52.2391L127.332 53.2791L125.32 53.9603L126.755 55.7231L125.861 56.3835L124.462 54.5531L123.422 56.3835L122.434 55.7231L123.547 53.9603L121.467 53.2947L121.748 52.2547L123.854 52.9567L123.672 50.8767L124.722 50.8871Z" fill="#06283D"/>
<path d="M112.71 50.8871L112.892 52.9671L114.847 52.2391L115.315 53.2791L113.313 53.9447L114.748 55.7075L113.88 56.3835L112.481 54.5531L111.441 56.3835L110.458 55.7231L111.566 53.9603L109.486 53.2947L109.772 52.2547L111.852 52.9567L111.67 50.8767L112.71 50.8871Z" fill="#06283D"/>
<path d="M100.693 50.8871L100.875 52.9671L102.835 52.2391L103.298 53.2791L101.296 53.9447L102.736 55.7075L101.837 56.3679L100.438 54.5375L99.3981 56.3679L98.4153 55.7075L99.5229 53.9447L97.4429 53.2791L97.7237 52.2391L99.8037 52.9411L99.6217 50.8611L100.693 50.8871Z" fill="#06283D"/>
<path d="M129.818 46.7688H127.769V47.2888H129.818V46.7688Z" fill="#06283D"/>
<path d="M138.621 46.7688H131.939V47.2888H138.621V46.7688Z" fill="#06283D"/>
<path opacity="0.8" d="M206.851 66.1647L204.724 90.4799C204.642 91.2559 204.28 91.9755 203.706 92.5038C203.131 93.0322 202.384 93.3331 201.604 93.3503H184.72C184.354 93.3523 183.992 93.2772 183.658 93.13C183.323 92.9827 183.024 92.7667 182.778 92.4958C182.533 92.225 182.348 91.9054 182.234 91.5581C182.121 91.2107 182.082 90.8434 182.12 90.4799L184.246 66.1595C184.325 65.3822 184.686 64.6607 185.261 64.1317C185.836 63.6027 186.585 63.3029 187.366 63.2891H204.251C204.617 63.287 204.979 63.3622 205.314 63.5098C205.649 63.6573 205.949 63.8739 206.194 64.1453C206.439 64.4168 206.625 64.7369 206.738 65.0849C206.851 65.4329 206.89 65.8008 206.851 66.1647Z" fill="#06283D"/>
<path opacity="0.8" d="M206.851 66.1647L204.724 90.4799C204.642 91.2559 204.28 91.9755 203.706 92.5038C203.131 93.0322 202.384 93.3331 201.604 93.3503H184.72C184.354 93.3523 183.992 93.2772 183.658 93.13C183.323 92.9827 183.024 92.7667 182.778 92.4958C182.533 92.225 182.348 91.9054 182.234 91.5581C182.121 91.2107 182.082 90.8434 182.12 90.4799L184.246 66.1595C184.325 65.3822 184.686 64.6607 185.261 64.1317C185.836 63.6027 186.585 63.3029 187.366 63.2891H204.251C204.617 63.287 204.979 63.3622 205.314 63.5098C205.649 63.6573 205.949 63.8739 206.194 64.1453C206.439 64.4168 206.625 64.7369 206.738 65.0849C206.851 65.4329 206.89 65.8008 206.851 66.1647Z" fill="white"/>
<path d="M185.786 70.0856H185.739C185.602 70.0737 185.475 70.0079 185.386 69.9026C185.297 69.7973 185.254 69.6612 185.266 69.524L185.463 67.2984C185.475 67.1688 185.535 67.0482 185.631 66.9606C185.727 66.873 185.853 66.8247 185.983 66.8252H188.333C188.471 66.8252 188.604 66.88 188.701 66.9775C188.799 67.075 188.853 67.2073 188.853 67.3452C188.853 67.4831 188.799 67.6154 188.701 67.7129C188.604 67.8104 188.471 67.8652 188.333 67.8652H186.461L186.306 69.6124C186.294 69.742 186.234 69.8626 186.138 69.9502C186.041 70.0378 185.916 70.0861 185.786 70.0856Z" fill="#06283D"/>
<path d="M204.693 70.0856H204.646C204.509 70.0737 204.382 70.0079 204.293 69.9026C204.205 69.7973 204.161 69.6612 204.173 69.524L204.318 67.8652H202.54C202.402 67.8652 202.27 67.8104 202.172 67.7129C202.075 67.6154 202.02 67.4831 202.02 67.3452C202.02 67.2073 202.075 67.075 202.172 66.9775C202.27 66.88 202.402 66.8252 202.54 66.8252H204.88C204.952 66.8249 205.024 66.8397 205.09 66.8688C205.157 66.8978 205.216 66.9403 205.265 66.9937C205.314 67.047 205.352 67.11 205.375 67.1786C205.398 67.2472 205.407 67.3199 205.4 67.392L205.202 69.6124C205.191 69.7403 205.132 69.8594 205.038 69.9467C204.944 70.0341 204.821 70.0836 204.693 70.0856Z" fill="#06283D"/>
<path d="M186.68 86.866H184.33C184.258 86.8657 184.188 86.8508 184.123 86.8222C184.057 86.7936 183.998 86.7518 183.95 86.6996C183.901 86.6466 183.864 86.5842 183.841 86.5161C183.818 86.4481 183.809 86.376 183.815 86.3044L184.007 84.0788C184.019 83.9408 184.085 83.8132 184.191 83.724C184.297 83.6348 184.434 83.5912 184.571 83.603C184.709 83.6147 184.837 83.6807 184.926 83.7865C185.015 83.8923 185.059 84.0292 185.047 84.1672L184.902 85.826H186.68C186.818 85.826 186.95 85.8807 187.048 85.9783C187.145 86.0758 187.2 86.208 187.2 86.346C187.2 86.4839 187.145 86.6161 187.048 86.7137C186.95 86.8112 186.818 86.866 186.68 86.866Z" fill="#06283D"/>
<path d="M203.221 86.866H200.876C200.738 86.866 200.606 86.8112 200.508 86.7137C200.411 86.6162 200.356 86.4839 200.356 86.346C200.356 86.2081 200.411 86.0758 200.508 85.9783C200.606 85.8808 200.738 85.826 200.876 85.826H202.748L202.899 84.0788C202.911 83.9416 202.976 83.8148 203.082 83.7261C203.187 83.6374 203.323 83.5941 203.46 83.6056C203.598 83.6175 203.724 83.6833 203.813 83.7886C203.902 83.8939 203.945 84.03 203.934 84.1672L203.741 86.3928C203.729 86.5224 203.67 86.643 203.573 86.7306C203.477 86.8182 203.351 86.8665 203.221 86.866Z" fill="#06283D"/>
<path d="M201.431 78.4817C202.605 73.9293 200.59 69.4739 196.931 68.5302C193.271 67.5864 189.352 70.5118 188.179 75.0641C187.005 79.6165 189.02 84.0719 192.679 85.0157C196.339 85.9594 200.257 83.034 201.431 78.4817Z" fill="white"/>
<path d="M196.846 89.7154H190.112L190.7 82.9814H197.434L196.846 89.7154Z" fill="white"/>
<path d="M204.724 90.4798C204.642 91.2558 204.28 91.9754 203.706 92.5037C203.131 93.0321 202.384 93.333 201.604 93.3502H184.72C184.354 93.3522 183.992 93.2771 183.658 93.1299C183.323 92.9826 183.024 92.7665 182.778 92.4957C182.533 92.2249 182.348 91.9053 182.234 91.558C182.121 91.2106 182.082 90.8432 182.12 90.4798C182.12 90.4798 189.878 88.0254 190.835 88.0254H196.83L204.724 90.4798Z" fill="white"/>
<path d="M207.831 73.2708L207.044 82.822L207.563 82.8647L208.35 73.3135L207.831 73.2708Z" fill="#06283D"/>
<path d="M208.378 68.9001L208.224 70.7761L208.742 70.8188L208.897 68.9428L208.378 68.9001Z" fill="#06283D"/>
<path d="M190.258 126.916H188.209V127.436H190.258V126.916Z" fill="#06283D"/>
<path d="M199.061 126.916H192.379V127.436H199.061V126.916Z" fill="#06283D"/>
<path d="M211.292 118.04L209.997 132.86C209.93 133.515 209.625 134.123 209.14 134.568C208.655 135.014 208.024 135.266 207.366 135.278C207.056 135.283 206.748 135.223 206.464 135.101C206.179 134.978 205.924 134.796 205.715 134.568C205.506 134.339 205.348 134.068 205.252 133.774C205.155 133.48 205.122 133.168 205.156 132.86L206.44 118.04C206.56 116.935 206.443 115.817 206.097 114.76C205.752 113.703 205.186 112.732 204.436 111.911C203.687 111.089 202.771 110.437 201.75 109.997C200.73 109.556 199.627 109.338 198.515 109.356H193.232C190.869 109.401 188.604 110.309 186.865 111.908C185.125 113.508 184.031 115.689 183.789 118.04L183.269 124.093H178.433L178.953 118.04C179.603 110.583 186.202 104.52 193.653 104.52H198.957C200.688 104.491 202.405 104.831 203.994 105.517C205.583 106.203 207.008 107.219 208.175 108.497C209.341 109.776 210.222 111.288 210.76 112.933C211.297 114.579 211.478 116.319 211.292 118.04Z" fill="#06283D"/>
<g opacity="0.5">
<path d="M211.292 118.04L209.997 132.86C209.93 133.515 209.625 134.123 209.14 134.568C208.655 135.014 208.024 135.266 207.366 135.278C207.056 135.283 206.748 135.223 206.464 135.101C206.179 134.978 205.924 134.796 205.715 134.568C205.506 134.339 205.348 134.068 205.252 133.774C205.155 133.48 205.122 133.168 205.156 132.86L206.44 118.04C206.56 116.935 206.443 115.817 206.097 114.76C205.752 113.703 205.186 112.732 204.436 111.911C203.687 111.089 202.771 110.437 201.75 109.997C200.73 109.556 199.627 109.338 198.515 109.356H193.232C190.869 109.401 188.604 110.309 186.865 111.908C185.125 113.508 184.031 115.689 183.789 118.04L183.269 124.093H178.433L178.953 118.04C179.603 110.583 186.202 104.52 193.653 104.52H198.957C200.688 104.491 202.405 104.831 203.994 105.517C205.583 106.203 207.008 107.219 208.175 108.497C209.341 109.776 210.222 111.288 210.76 112.933C211.297 114.579 211.478 116.319 211.292 118.04Z" fill="white"/>
</g>
<path d="M211.64 132.319L209.118 161.2C209.026 162.095 208.61 162.926 207.946 163.535C207.283 164.143 206.42 164.488 205.52 164.502H176.639C176.216 164.51 175.796 164.427 175.407 164.26C175.019 164.093 174.67 163.845 174.385 163.532C174.099 163.22 173.884 162.85 173.753 162.448C173.621 162.046 173.577 161.621 173.623 161.2L176.15 132.319C176.208 131.743 176.401 131.189 176.714 130.702C177.027 130.215 177.45 129.809 177.949 129.516C178.491 129.184 179.113 129.005 179.748 128.996H208.624C209.214 128.993 209.793 129.157 210.293 129.47C210.76 129.772 211.134 130.2 211.372 130.703C211.61 131.206 211.702 131.766 211.64 132.319Z" fill="#06283D"/>
<path d="M181.61 144.934L189.113 156.484L213.86 131.737C213.899 131.691 213.919 131.633 213.918 131.573C213.917 131.513 213.895 131.456 213.855 131.411C213.816 131.367 213.761 131.338 213.702 131.33C213.643 131.322 213.583 131.335 213.533 131.368L189.951 149.854L185.494 142.672L181.61 144.934Z" fill="white"/>
<path d="M143.52 99.6581L143.697 99.8713L143.936 100.147C144.108 100.329 144.274 100.521 144.456 100.698C144.815 101.072 145.205 101.436 145.6 101.806C146.39 102.534 147.218 103.22 148.08 103.86C148.959 104.515 149.885 105.113 150.81 105.706C151.33 105.986 151.757 106.283 152.246 106.553L153.374 107.177C153.538 107.25 153.723 107.261 153.894 107.208C154.258 107.099 156.348 105.03 157.014 104.26C158.491 102.57 160.727 100.344 161.933 98.4517L163.28 100.308C162.429 102.627 161.299 104.834 159.916 106.881C159.172 107.987 158.279 108.986 157.264 109.85C156.654 110.364 155.966 110.776 155.225 111.072C154.287 111.447 153.256 111.525 152.272 111.296C152.017 111.234 151.768 111.15 151.528 111.046L151.06 110.843L150.218 110.458C149.651 110.209 149.105 109.907 148.554 109.632C147.452 109.044 146.382 108.396 145.35 107.692C144.31 106.977 143.312 106.202 142.36 105.373C141.866 104.941 141.424 104.504 140.972 104.031C140.748 103.797 140.52 103.553 140.301 103.298L139.979 102.903C139.859 102.757 139.771 102.648 139.61 102.424L143.52 99.6581Z" fill="#FFB573"/>
<path d="M161.72 98.7377L164.133 93.5793L166.437 97.7081C166.437 97.7081 164.923 100.308 163.28 100.308L161.72 98.7377Z" fill="#FFB573"/>
<path d="M166.868 91.4368L169.302 94.5672L166.457 97.7028L164.154 93.5792L166.868 91.4368Z" fill="#FFB573"/>
<path d="M166.021 99.1276H169.853C169.961 99.1268 170.065 99.086 170.145 99.013C170.224 98.94 170.274 98.84 170.285 98.7324L171.08 89.544C171.086 89.4839 171.079 89.4233 171.06 89.366C171.041 89.3088 171.01 89.2562 170.969 89.2116C170.929 89.167 170.879 89.1314 170.824 89.1072C170.769 89.0829 170.709 89.0705 170.649 89.0708H166.821C166.712 89.0717 166.608 89.1133 166.528 89.1874C166.448 89.2614 166.399 89.3627 166.39 89.4712L165.584 98.6544C165.579 98.7148 165.586 98.7755 165.606 98.8328C165.626 98.89 165.657 98.9426 165.698 98.9871C165.739 99.0316 165.789 99.0671 165.845 99.0912C165.9 99.1154 165.96 99.1278 166.021 99.1276Z" fill="#06283D"/>
<path opacity="0.3" d="M166.062 98.2071H169.9L170.617 89.9963H166.78L166.062 98.2071Z" fill="white"/>
<path d="M165.812 97.0424L166.494 96.694C166.84 96.5177 167.161 96.2936 167.445 96.0284L167.57 95.576C167.497 95.4555 167.388 95.3617 167.258 95.3083C167.127 95.2549 166.984 95.2448 166.847 95.2796L166.28 95.4356L163.467 95.6488L163.4 96.8344L164.221 98.1032H164.502C164.812 98.1141 165.115 98.0128 165.356 97.8179C165.596 97.6229 165.759 97.3475 165.812 97.0424Z" fill="#FFB573"/>
<path d="M138.611 94.64C140.561 94.2864 154.315 106.21 154.315 106.21L150.238 112.19C150.238 112.19 135.2 101.717 135.678 99.19C136.141 96.5328 135.772 95.16 138.611 94.64Z" fill="#263238"/>
<path opacity="0.2" d="M140.348 98.4517L140.197 104.692C141.757 105.903 147.394 110.224 147.394 110.224L140.348 98.4517Z" fill="black"/>
<path d="M129.444 218.561L134.056 219.014L135.522 208.317L130.905 207.865L129.444 218.561Z" fill="#FFB573"/>
<path d="M84.0322 155.797L82.8518 160.29L92.8306 164.591L94.9002 160.03L84.0322 155.797Z" fill="#FFB573"/>
<path d="M137.358 219.96C137.755 220.009 138.157 219.921 138.497 219.711C138.57 219.647 138.628 219.566 138.664 219.476C138.7 219.385 138.714 219.287 138.705 219.191C138.705 219.13 138.688 219.07 138.657 219.018C138.626 218.966 138.582 218.923 138.528 218.894C137.972 218.561 136.089 219.456 135.876 219.555C135.856 219.564 135.839 219.58 135.828 219.599C135.816 219.619 135.812 219.641 135.814 219.664C135.817 219.687 135.827 219.708 135.843 219.725C135.859 219.742 135.879 219.753 135.902 219.757C136.38 219.869 136.868 219.937 137.358 219.96ZM138.195 219.029C138.268 219.024 138.34 219.04 138.403 219.076C138.425 219.088 138.444 219.105 138.456 219.126C138.469 219.147 138.476 219.171 138.476 219.196C138.482 219.261 138.472 219.326 138.447 219.387C138.423 219.447 138.385 219.501 138.336 219.544C138.05 219.789 137.296 219.809 136.256 219.612C136.869 219.305 137.53 219.107 138.211 219.024L138.195 219.029Z" fill="#06283D"/>
<path d="M135.923 219.737H135.965C136.526 219.503 137.655 218.535 137.582 218.005C137.561 217.913 137.51 217.83 137.436 217.772C137.362 217.713 137.27 217.682 137.176 217.683C137.068 217.662 136.956 217.666 136.85 217.693C136.743 217.72 136.643 217.769 136.557 217.839C135.959 218.301 135.819 219.555 135.809 219.601C135.804 219.62 135.803 219.64 135.808 219.659C135.812 219.678 135.822 219.696 135.835 219.711C135.847 219.721 135.861 219.728 135.876 219.733C135.891 219.737 135.907 219.739 135.923 219.737ZM137.072 217.88H137.135C137.337 217.911 137.348 217.989 137.348 218.015C137.395 218.333 136.625 219.102 136.048 219.409C136.103 218.882 136.325 218.386 136.682 217.995C136.798 217.911 136.941 217.876 137.083 217.896L137.072 217.88Z" fill="#06283D"/>
<path d="M133.827 217.152L129.667 217.329C129.578 217.33 129.491 217.364 129.425 217.424C129.359 217.485 129.317 217.567 129.308 217.657L128.31 223.465C128.304 223.564 128.318 223.663 128.351 223.756C128.384 223.849 128.435 223.935 128.501 224.009C128.568 224.082 128.648 224.142 128.737 224.184C128.827 224.226 128.924 224.251 129.022 224.255H129.106C130.92 224.162 131.794 224.027 134.092 223.949C135.502 223.902 139.812 224.411 141.736 223.975C143.66 223.538 143.296 221.629 142.47 221.645C139.797 221.697 136.713 219.955 135.19 217.917C134.924 217.745 134.118 217.137 133.827 217.152Z" fill="#263238"/>
<path d="M84.9733 160.878L87.0949 157.274C87.143 157.198 87.1605 157.106 87.1442 157.017C87.1278 156.929 87.0786 156.85 87.0065 156.796L82.6801 152.807C82.5193 152.694 82.3205 152.648 82.1262 152.679C81.9319 152.71 81.7575 152.816 81.6401 152.974L81.5933 153.046C80.6885 154.606 80.3297 155.428 79.1493 157.399C78.4213 158.61 75.6445 161.975 74.9893 163.81C74.3341 165.646 76.1125 166.41 76.5493 165.693C77.9585 163.415 81.0941 161.772 83.6421 161.574C83.8865 161.481 84.8277 161.132 84.9733 160.878Z" fill="#263238"/>
<path opacity="0.2" d="M135.522 208.317L134.768 213.835L130.151 213.382L130.9 207.87L135.522 208.317Z" fill="black"/>
<path opacity="0.2" d="M97.9681 161.143L95.8361 165.953L89.4089 163.114L91.0469 158.532L97.9681 161.143Z" fill="black"/>
<path d="M141.56 100.126C144.196 104.608 140.972 108.389 138.279 121.784L120.9 121.831C121.181 114.613 121.15 108.779 118.071 94.5776C117.991 94.2277 117.992 93.8642 118.072 93.5144C118.152 93.1645 118.31 92.8374 118.535 92.5573C118.76 92.2773 119.044 92.0516 119.368 91.8972C119.692 91.7428 120.047 91.6636 120.406 91.6656C121.841 91.6656 123.646 91.7124 125.481 91.8996C128.377 92.1363 131.252 92.5724 134.087 93.2048C135.625 93.5756 137.136 94.0481 138.611 94.6192C139.506 94.9208 140.582 97.3544 141.56 100.126Z" fill="#263238"/>
<path d="M138.923 122.689C138.923 122.689 148.684 150.909 148.45 164.481C148.315 172.255 147.727 186.742 145.382 196.929C143.468 205.249 135.668 210.553 135.668 210.553L129.428 210.184C129.428 210.184 126.048 197.496 126.636 192.447C127.806 182.395 131.274 174.845 130.853 165.615C130.187 150.504 125.715 122.455 125.715 122.455L138.923 122.689Z" fill="#06283D"/>
<path d="M128.175 211.812L136.989 212.332L137.79 209.685L127.941 208.775L128.175 211.812Z" fill="#263238"/>
<path opacity="0.2" d="M129.288 179.702C129.288 179.702 129.288 179.65 129.34 179.655C134.878 180.175 138.7 172.203 137.79 161.289L134.852 133.469L129.288 179.702Z" fill="black"/>
<path d="M134.545 122.455C134.545 122.455 142.303 172.079 126.173 177.663C117.661 180.887 110.5 177.393 102.019 173.639C97.1153 171.47 90.9897 165.599 90.9897 165.599L93.3453 159.188C97.5819 158.042 102.015 157.819 106.345 158.533C114.613 159.812 114.962 162.173 117.9 160.389C124.077 145.122 113.449 133.053 120.671 122.429L134.545 122.455Z" fill="#06283D"/>
<path d="M93.8082 157.971L90.657 166.286L92.9762 168.059L96.7202 158.163L93.8082 157.971Z" fill="#263238"/>
<path d="M92.5081 113.131C91.7229 114.291 87.7397 113.506 87.7397 113.506L86.8921 108.571L91.7853 110.531L92.5081 113.131Z" fill="#FFB573"/>
<path d="M87.8802 108.316L88.6394 113.443L85.7014 113.88C85.5422 113.895 85.3832 113.849 85.2554 113.753C85.1276 113.657 85.0401 113.517 85.0098 113.36L83.8814 109.72C83.8622 109.635 83.8763 109.547 83.9209 109.472C83.9654 109.398 84.0369 109.343 84.1206 109.32L87.8802 108.316Z" fill="#FFB573"/>
<path d="M86.5644 110.64L88.2388 110.937L89.8248 109.746L89.2112 109.309C88.7954 109.013 88.503 108.574 88.3896 108.077C88.2717 107.555 88.2004 107.025 88.1764 106.491V106.314C88.1565 106.157 88.0856 106.011 87.9748 105.899C87.864 105.786 87.7193 105.713 87.5628 105.69L87.1468 105.997C86.8868 106.564 87.074 107.224 87.0428 107.666L86.9752 108.524L86.3044 108.815L86.5644 110.64Z" fill="#FFB573"/>
<path d="M118.908 93.6001L109.07 107.12L91 110.687V113.651C91 113.651 107.983 114.91 111.8 112.689C115.617 110.469 122.018 97.0009 122.018 97.0009L118.908 93.6001Z" fill="#FFB573"/>
<path d="M118.794 67.6001C114.665 66.2169 109.876 68.7805 107.989 72.7013C106.101 76.6221 106.761 81.4321 108.888 85.2281C109.528 86.3773 110.292 87.4589 110.817 88.6601C111.401 89.8508 111.529 91.214 111.176 92.4925C110.75 93.7353 110.313 94.5309 108.774 94.3333C108.774 94.3333 108.774 93.4805 109.361 93.5845C109.361 93.5845 108.113 94.2761 107.625 93.8237C108.191 94.6973 109.705 94.3801 110.188 93.4545C110.911 92.0765 109.58 90.2097 108.02 90.2253C106.46 90.2409 105.191 91.8217 105.243 93.3765C105.308 94.1541 105.585 94.8991 106.043 95.5307C106.501 96.1622 107.124 96.6563 107.843 96.9593C107.422 97.0287 106.989 96.9567 106.613 96.7545C106.236 96.5522 105.938 96.2311 105.763 95.8413C106.47 97.6925 108.779 98.5089 110.729 98.1449C112.679 97.7809 114.327 96.5329 115.856 95.2693C117.936 93.5637 120.063 91.4057 120.016 88.7381C119.969 86.7465 118.69 85.0357 117.614 83.3561C116.537 81.6765 115.596 79.6277 116.283 77.7609C116.86 76.1749 118.43 75.2181 119.813 74.2509C120.812 73.5593 122.84 72.0149 122.601 70.5537C122.356 69.1601 119.964 67.9901 118.794 67.6001Z" fill="#263238"/>
<path d="M109.491 113.88L106.767 106.668L107.391 106.72C107.895 106.762 108.402 106.658 108.849 106.42C109.296 106.182 109.666 105.82 109.913 105.378C111.993 101.676 117.364 92.2792 118.877 91.8112C121.035 91.1716 123.256 92.898 124.077 95.4512C124.696 97.3284 118.357 105.378 115.435 109.954C112.84 114.005 109.491 113.88 109.491 113.88Z" fill="#263238"/>
<path d="M82.9142 163.249V163.306C82.9525 163.406 83.0155 163.495 83.0973 163.564C83.1791 163.633 83.2771 163.68 83.3822 163.701C83.4452 163.721 83.5123 163.724 83.577 163.711C83.6416 163.697 83.7017 163.667 83.7514 163.623C84.1882 163.223 83.9074 161.543 83.8814 161.377C83.8785 161.355 83.8689 161.335 83.854 161.319C83.8391 161.303 83.8195 161.293 83.7982 161.289C83.7779 161.286 83.7574 161.289 83.7384 161.296C83.7194 161.303 83.7024 161.315 83.689 161.33C83.3354 161.829 82.7738 162.719 82.9142 163.249ZM83.715 161.689C83.8086 162.355 83.8502 163.249 83.6058 163.467C83.5803 163.481 83.5517 163.489 83.5226 163.489C83.4935 163.489 83.4648 163.481 83.4394 163.467C83.3695 163.454 83.3041 163.424 83.2495 163.378C83.1949 163.332 83.1528 163.274 83.1274 163.207C83.0338 162.927 83.2314 162.355 83.715 161.679V161.689Z" fill="#06283D"/>
<path d="M83.72 161.595C83.8552 162.157 84.3856 163.114 84.8536 163.228C84.9389 163.245 85.0275 163.233 85.1049 163.193C85.1823 163.154 85.2441 163.089 85.28 163.01C85.3207 162.935 85.3446 162.853 85.35 162.769C85.3554 162.684 85.3421 162.6 85.3112 162.521C85.098 161.876 83.8708 161.346 83.8188 161.32C83.802 161.31 83.7833 161.306 83.7642 161.306C83.7451 161.306 83.7263 161.31 83.7096 161.32C83.6943 161.332 83.6825 161.348 83.6752 161.366C83.6679 161.384 83.6654 161.404 83.668 161.424C83.6808 161.482 83.6982 161.539 83.72 161.595ZM85.1344 162.635C85.145 162.681 85.1463 162.729 85.1383 162.775C85.1302 162.821 85.113 162.866 85.0876 162.906C85.02 163.03 84.9524 163.03 84.9004 163.02C84.5832 162.958 84.0996 162.172 83.9436 161.626C84.344 161.829 84.9836 162.209 85.1188 162.604C85.1152 162.614 85.1152 162.625 85.1188 162.635H85.1344Z" fill="#06283D"/>
<path d="M120.838 120.952L120.354 122.642C120.292 122.772 120.442 122.907 120.661 122.902H138.601C138.772 122.902 138.913 122.814 138.923 122.71L139.09 121.02C139.09 120.905 138.954 120.801 138.767 120.806H121.139C121.081 120.802 121.022 120.813 120.969 120.839C120.916 120.864 120.871 120.903 120.838 120.952Z" fill="#06283D"/>
<path opacity="0.5" d="M120.838 120.952L120.354 122.642C120.292 122.772 120.442 122.907 120.661 122.902H138.601C138.772 122.902 138.913 122.814 138.923 122.71L139.09 121.02C139.09 120.905 138.954 120.801 138.767 120.806H121.139C121.081 120.802 121.022 120.813 120.969 120.839C120.916 120.864 120.871 120.903 120.838 120.952Z" fill="white"/>
<path d="M124.28 123.058H123.76C123.661 123.058 123.578 123.006 123.589 122.944L123.823 120.744C123.823 120.682 123.921 120.63 124.025 120.63H124.545C124.644 120.63 124.722 120.682 124.717 120.749L124.483 122.944C124.452 123.006 124.358 123.063 124.28 123.058Z" fill="#06283D"/>
<path d="M137.212 123.058H136.692C136.599 123.058 136.516 123.006 136.526 122.944L136.76 120.749C136.76 120.682 136.854 120.63 136.952 120.63H137.472C137.571 120.63 137.654 120.682 137.644 120.744L137.41 122.938C137.4 123.006 137.316 123.058 137.212 123.058Z" fill="#06283D"/>
<path d="M131.279 123.048H130.759C130.661 123.048 130.577 122.996 130.588 122.933L130.822 120.739C130.822 120.671 130.921 120.619 131.019 120.619H131.539C131.638 120.619 131.716 120.671 131.711 120.734L131.472 122.928C131.472 122.996 131.383 123.048 131.279 123.048Z" fill="#06283D"/>
<path d="M126.292 82.4355C126.844 85.2695 127.384 90.3863 125.46 91.9255C125.46 91.9255 126.23 94.8323 131.373 95.6071C137.051 96.4599 134.072 93.2255 134.072 93.2255C130.978 92.0035 131.056 89.7675 131.586 87.7083L126.292 82.4355Z" fill="#FFB573"/>
<path d="M125.481 91.8996C128.225 92.0735 130.953 92.4525 133.64 93.0332L137.53 94.1928C138.221 95.5864 137.088 98.4516 133.833 98.9976C133.833 98.9976 125.632 100.126 123.214 91.6812L125.481 91.8996Z" fill="#FFB573"/>
<path opacity="0.2" d="M128.44 84.5938L131.56 87.7137C131.429 88.1968 131.343 88.6913 131.305 89.1906C130.12 88.8422 128.216 87.537 128.086 86.289C128.088 85.7057 128.208 85.1289 128.44 84.5938Z" fill="black"/>
<path d="M122.819 78.858C124.213 83.2572 124.701 85.15 127.556 86.8816C131.81 89.4816 136.916 86.8192 136.864 82.0976C136.823 77.844 134.561 71.3648 129.73 70.6576C128.668 70.4985 127.583 70.6137 126.578 70.9924C125.573 71.371 124.682 72.0005 123.99 72.8209C123.297 73.6413 122.826 74.6254 122.621 75.6794C122.416 76.7334 122.484 77.8223 122.819 78.8424V78.858Z" fill="#FFB573"/>
<path d="M133.318 78.1716C133.809 78.9438 134.406 79.6438 135.091 80.2516C134.931 80.425 134.735 80.5613 134.516 80.6511C134.298 80.741 134.063 80.7821 133.827 80.7716L133.318 78.1716Z" fill="#ED893E"/>
<path d="M132.824 83.122C133 83.1026 133.174 83.0678 133.344 83.018C133.357 83.0149 133.37 83.0093 133.381 83.0013C133.392 82.9934 133.401 82.9833 133.409 82.9717C133.416 82.9602 133.421 82.9473 133.423 82.9338C133.425 82.9203 133.425 82.9065 133.422 82.8932C133.414 82.8659 133.397 82.8425 133.373 82.8279C133.348 82.8134 133.319 82.8088 133.292 82.8152C132.848 82.9375 132.382 82.9542 131.93 82.8639C131.479 82.7736 131.054 82.5788 130.692 82.2952C130.67 82.2739 130.641 82.262 130.611 82.262C130.581 82.262 130.552 82.2739 130.531 82.2952C130.52 82.3053 130.512 82.3175 130.506 82.3309C130.501 82.3443 130.498 82.3587 130.498 82.3732C130.498 82.3877 130.501 82.4021 130.506 82.4155C130.512 82.4289 130.52 82.441 130.531 82.4512C130.85 82.7082 131.217 82.8997 131.61 83.0148C132.004 83.1299 132.416 83.1663 132.824 83.122Z" fill="#263238"/>
<path d="M121.306 70.0753C120.733 70.4459 120.257 70.9487 119.919 71.5414C119.58 72.1341 119.389 72.7994 119.361 73.4813C119.337 73.7421 119.378 74.0046 119.481 74.2457C119.532 74.365 119.614 74.4687 119.718 74.5463C119.822 74.6239 119.944 74.6726 120.073 74.6877C120.469 74.6877 120.76 74.3341 120.978 74.0013L121.987 72.4413C122.402 71.9345 122.752 71.3772 123.027 70.7825C123.365 69.7581 121.925 69.6801 121.306 70.0753Z" fill="#06283D"/>
<path d="M121.8 71.11C119.038 74.3028 117.801 83.1376 125.892 85.6024C127.244 84.5312 125.06 82.5812 124.134 80.1164C123.526 78.5044 126.61 75.4936 127.811 74.256C129.012 73.0184 130.12 71.2348 131.815 71.5208C132.245 71.6647 132.708 71.6773 133.146 71.5572C134.493 70.9488 133.838 70.1428 133.146 69.5812C132.085 68.7962 130.822 68.3307 129.506 68.2396C128.086 68.0723 126.646 68.2454 125.306 68.7445C123.966 69.2436 122.764 70.0545 121.8 71.11Z" fill="#263238"/>
<path d="M130.78 70.0389C134.03 72.7481 129.74 72.8157 127.468 74.5317C125.289 76.1801 126.818 78.8789 123.131 80.1321C120.12 81.0109 119.423 80.4805 118.591 79.8981C119.622 79.7196 120.565 79.2052 121.274 78.4349C121.982 77.6646 122.416 76.6817 122.507 75.6393C122.762 73.6633 127.067 66.8981 130.78 70.0389Z" fill="#263238"/>
<path d="M122.33 82.5552C122.839 83.2886 123.616 83.7928 124.493 83.9592C125.658 84.162 126.105 83.096 125.705 82.056C125.325 81.12 124.27 79.8876 123.141 80.1528C122.753 80.2532 122.421 80.5033 122.217 80.8485C122.013 81.1936 121.955 81.6054 122.054 81.9936C122.108 82.1975 122.201 82.3885 122.33 82.5552Z" fill="#FFB573"/>
<path d="M130.224 70.3145C130.853 71.9161 132.668 71.7029 134.009 73.3773C134.836 74.4173 136.458 71.2089 134.248 69.9453C132.038 68.6817 129.236 67.8081 130.224 70.3145Z" fill="#263238"/>
<path d="M128.31 77.0745C128.356 77.0795 128.403 77.0695 128.443 77.0462C128.484 77.0228 128.515 76.9872 128.534 76.9445C128.96 75.9981 130.239 75.7589 130.25 75.7589C130.307 75.7464 130.357 75.7124 130.39 75.6641C130.423 75.6157 130.436 75.5566 130.427 75.4989C130.415 75.4425 130.382 75.3929 130.334 75.3607C130.287 75.3286 130.228 75.3166 130.172 75.3273C130.104 75.3273 128.648 75.6341 128.128 76.7781C128.105 76.8313 128.103 76.8915 128.124 76.9458C128.144 77.0001 128.185 77.0444 128.237 77.0693H128.31V77.0745Z" fill="#263238"/>
<path d="M135.07 75.161C135.108 75.1637 135.146 75.156 135.18 75.1385C135.214 75.1211 135.243 75.0947 135.263 75.0622C135.279 75.0388 135.291 75.0123 135.297 74.9843C135.303 74.9563 135.303 74.9274 135.298 74.8992C135.293 74.8711 135.282 74.8443 135.266 74.8204C135.25 74.7966 135.229 74.7763 135.205 74.7606C134.917 74.561 134.586 74.4337 134.238 74.3894C133.891 74.345 133.537 74.385 133.209 74.5058C133.181 74.5165 133.156 74.5327 133.136 74.5534C133.115 74.5742 133.099 74.599 133.088 74.6264C133.077 74.6537 133.072 74.683 133.073 74.7123C133.074 74.7417 133.081 74.7705 133.094 74.797C133.117 74.85 133.16 74.8917 133.214 74.9132C133.267 74.9346 133.327 74.934 133.38 74.9114C133.639 74.821 133.915 74.7936 134.187 74.8316C134.458 74.8696 134.716 74.9718 134.94 75.1298C134.981 75.1494 135.025 75.1601 135.07 75.161Z" fill="#263238"/>
<path d="M156.447 103.626L153.4 105.357L150.233 112.169C150.233 112.169 153.291 114.114 155.704 112.539C158.117 110.963 156.447 103.626 156.447 103.626Z" fill="#06283D"/>
<path opacity="0.5" d="M156.447 103.626L153.4 105.357L150.233 112.169C150.233 112.169 153.291 114.114 155.704 112.539C158.117 110.963 156.447 103.626 156.447 103.626Z" fill="white"/>
<path d="M103.163 105.732L106.767 106.772L110.183 113.838C110.183 113.838 107.437 116.381 104.463 113.953C102.237 112.112 103.163 105.732 103.163 105.732Z" fill="#06283D"/>
<g opacity="0.5">
<path d="M103.163 105.732L106.767 106.772L110.183 113.838C110.183 113.838 107.437 116.381 104.463 113.953C102.237 112.112 103.163 105.732 103.163 105.732Z" fill="white"/>
</g>
<path d="M134.862 76.9236C135.112 76.8768 135.382 77.1576 135.439 77.5424C135.497 77.9272 135.356 78.2808 135.107 78.3224C134.857 78.364 134.587 78.0884 134.529 77.7036C134.472 77.3188 134.613 76.96 134.862 76.9236Z" fill="#263238"/>
<path d="M135.632 76.5439L134.753 76.9755C135.283 77.3499 135.632 76.5439 135.632 76.5439Z" fill="#263238"/>
<path d="M130.52 77.8181C130.77 77.7713 131.04 78.0521 131.097 78.4369C131.155 78.8217 131.014 79.1753 130.765 79.2169C130.515 79.2585 130.245 78.9829 130.187 78.5981C130.13 78.2133 130.26 77.8649 130.52 77.8181Z" fill="#263238"/>
<path d="M131.279 77.4385L130.4 77.8701C130.931 78.2445 131.279 77.4385 131.279 77.4385Z" fill="#263238"/>
<path d="M108.503 97.7133C108.014 97.7161 107.528 97.6242 107.073 97.4429C105.461 96.7825 104.713 95.1081 104.993 92.8409C105.002 92.7726 105.038 92.7108 105.093 92.6689C105.147 92.627 105.216 92.6084 105.285 92.6173C105.319 92.6211 105.352 92.6317 105.381 92.6486C105.411 92.6654 105.437 92.6881 105.458 92.7153C105.479 92.7425 105.494 92.7736 105.503 92.8068C105.512 92.84 105.513 92.8746 105.508 92.9085C105.238 94.9209 105.872 96.3977 107.25 96.9593C108.05 97.233 108.916 97.2467 109.724 96.9982C110.532 96.7497 111.24 96.2519 111.748 95.5761C113.053 93.8393 112.627 91.3745 110.594 88.8161C105.269 82.1341 105.623 78.5825 106.377 75.7745C107.469 71.6977 110.667 67.0281 119.715 67.9277C119.784 67.9346 119.847 67.9686 119.891 68.0222C119.935 68.0758 119.956 68.1447 119.949 68.2137C119.942 68.2826 119.908 68.346 119.854 68.3899C119.8 68.4338 119.732 68.4546 119.663 68.4477C110.984 67.5845 107.916 72.0357 106.876 75.9149C106.127 78.7229 105.836 82.0041 110.999 88.4989C114.119 92.4145 112.856 94.9781 112.164 95.8933C111.731 96.4538 111.177 96.9089 110.543 97.2241C109.909 97.5394 109.212 97.7066 108.503 97.7133Z" fill="#263238"/>
</g>
<defs>
<filter id="filter0_i_932_239" x="0" y="0" width="260" height="264" filterUnits="userSpaceOnUse" color-interpolation-filters="sRGB">
<feFlood flood-opacity="0" result="BackgroundImageFix"/>
<feBlend mode="normal" in="SourceGraphic" in2="BackgroundImageFix" result="shape"/>
<feColorMatrix in="SourceAlpha" type="matrix" values="0 0 0 0 0 0 0 0 0 0 0 0 0 0 0 0 0 0 127 0" result="hardAlpha"/>
<feOffset dy="4"/>
<feGaussianBlur stdDeviation="2"/>
<feComposite in2="hardAlpha" operator="arithmetic" k2="-1" k3="1"/>
<feColorMatrix type="matrix" values="0 0 0 0 0 0 0 0 0 0 0 0 0 0 0 0 0 0 0.25 0"/>
<feBlend mode="normal" in2="shape" result="effect1_innerShadow_932_239"/>
</filter>
</defs>
</svg>
