<svg width="260" height="260" viewBox="0 0 260 260" fill="none" xmlns="http://www.w3.org/2000/svg">
<g filter="url(#filter0_i_918_225)">
<path d="M260 198.848H0V198.978H260V198.848Z" fill="#E6E6E6"/>
<path d="M64.9065 206.716H47.6841V206.846H64.9065V206.716Z" fill="#E6E6E6"/>
<path d="M42.2344 206.716H32.2556V206.846H42.2344V206.716Z" fill="#E6E6E6"/>
<path d="M109.486 208.629H99.5073V208.759H109.486V208.629Z" fill="#E6E6E6"/>
<path d="M161.517 211.531H139.058V211.661H161.517V211.531Z" fill="#E6E6E6"/>
<path d="M134.43 211.531H131.139V211.661H134.43V211.531Z" fill="#E6E6E6"/>
<path d="M235.742 208.629H187.028V208.759H235.742V208.629Z" fill="#E6E6E6"/>
<path d="M123.24 175.656H22.8331C22.0466 175.655 21.2927 175.341 20.737 174.785C20.1813 174.228 19.8691 173.473 19.8691 172.687V31.5433C19.876 30.7612 20.1911 30.0134 20.7461 29.4624C21.3011 28.9113 22.051 28.6014 22.8331 28.6001H123.24C124.027 28.6001 124.783 28.9129 125.339 29.4698C125.896 30.0266 126.209 30.7818 126.209 31.5693V172.687C126.209 173.474 125.896 174.23 125.339 174.786C124.783 175.343 124.027 175.656 123.24 175.656ZM22.8331 28.7041C22.081 28.7055 21.3602 29.0052 20.8289 29.5375C20.2976 30.0698 19.9991 30.7912 19.9991 31.5433V172.687C19.9991 173.439 20.2976 174.16 20.8289 174.693C21.3602 175.225 22.081 175.525 22.8331 175.526H123.24C123.993 175.525 124.714 175.225 125.246 174.693C125.778 174.161 126.078 173.439 126.079 172.687V31.5433C126.078 30.7907 125.778 30.0694 125.246 29.5372C124.714 29.005 123.993 28.7055 123.24 28.7041H22.8331Z" fill="#E6E6E6"/>
<path d="M235.721 175.656H135.309C134.522 175.655 133.768 175.341 133.211 174.785C132.655 174.228 132.341 173.474 132.34 172.687V31.5433C132.348 30.7608 132.665 30.013 133.22 29.462C133.776 28.9111 134.527 28.6014 135.309 28.6001H235.721C236.502 28.6028 237.251 28.9133 237.805 29.4642C238.359 30.0151 238.673 30.7621 238.68 31.5433V172.687C238.68 173.473 238.369 174.226 237.814 174.783C237.26 175.339 236.507 175.653 235.721 175.656ZM135.309 28.7041C134.557 28.7055 133.835 29.005 133.303 29.5372C132.771 30.0694 132.471 30.7907 132.47 31.5433V172.687C132.471 173.439 132.771 174.161 133.303 174.693C133.835 175.225 134.557 175.525 135.309 175.526H235.721C236.474 175.525 237.195 175.225 237.727 174.693C238.26 174.161 238.559 173.439 238.56 172.687V31.5433C238.559 30.7907 238.26 30.0694 237.727 29.5372C237.195 29.005 236.474 28.7055 235.721 28.7041H135.309Z" fill="#E6E6E6"/>
<path d="M139.048 154.43H127.613V199.789H139.048V154.43Z" fill="#E0E0E0"/>
<path d="M136.874 199.789H139.048V193.612H134.597L136.874 199.789Z" fill="#FAFAFA"/>
<path d="M88.9409 154.43H77.5061V199.789H88.9409V154.43Z" fill="#E0E0E0"/>
<path d="M139.048 154.43H87.0481V195.998H139.048V154.43Z" fill="#FAFAFA"/>
<path d="M137.161 156.473V167.471H88.9201V156.473H137.145M137.348 156.271H88.7329V167.669H137.363V156.271H137.348Z" fill="#E0E0E0"/>
<path d="M89.2165 199.789H87.0481V193.612H91.4941L89.2165 199.789Z" fill="#FAFAFA"/>
<path d="M111.899 161.97C111.899 162.197 111.966 162.419 112.093 162.608C112.219 162.797 112.398 162.944 112.608 163.031C112.818 163.118 113.049 163.141 113.272 163.097C113.495 163.053 113.7 162.943 113.861 162.782C114.021 162.622 114.131 162.417 114.175 162.194C114.22 161.971 114.197 161.74 114.11 161.53C114.023 161.32 113.876 161.141 113.687 161.014C113.498 160.888 113.275 160.821 113.048 160.821C112.743 160.821 112.451 160.942 112.236 161.157C112.02 161.373 111.899 161.665 111.899 161.97Z" fill="#E6E6E6"/>
<path d="M137.161 169.712V180.71H88.9201V169.712H137.145M137.348 169.515H88.7329V180.913H137.363V169.52L137.348 169.515Z" fill="#E0E0E0"/>
<path d="M111.899 175.24C111.899 175.467 111.966 175.689 112.093 175.878C112.219 176.067 112.398 176.215 112.608 176.302C112.818 176.389 113.049 176.411 113.272 176.367C113.495 176.323 113.7 176.213 113.861 176.053C114.021 175.892 114.131 175.687 114.175 175.464C114.22 175.241 114.197 175.01 114.11 174.8C114.023 174.59 113.876 174.411 113.687 174.284C113.498 174.158 113.275 174.091 113.048 174.091C112.743 174.091 112.451 174.212 112.236 174.427C112.02 174.643 111.899 174.935 111.899 175.24Z" fill="#E6E6E6"/>
<path d="M137.161 182.957V193.96H88.9201V182.957H137.145M137.348 182.754H88.7329V194.158H137.363V182.754H137.348Z" fill="#E0E0E0"/>
<path d="M111.899 188.459C111.9 188.686 111.968 188.907 112.095 189.096C112.222 189.284 112.402 189.43 112.612 189.517C112.822 189.603 113.053 189.625 113.275 189.58C113.498 189.535 113.702 189.425 113.862 189.264C114.023 189.103 114.131 188.898 114.175 188.676C114.219 188.453 114.196 188.222 114.109 188.012C114.022 187.803 113.875 187.624 113.686 187.498C113.497 187.371 113.275 187.304 113.048 187.304C112.897 187.304 112.747 187.334 112.607 187.392C112.467 187.45 112.34 187.535 112.233 187.643C112.127 187.75 112.042 187.877 111.985 188.017C111.927 188.157 111.898 188.307 111.899 188.459Z" fill="#E6E6E6"/>
<path d="M81.9573 128.086H70.5225V199.794H81.9573V128.086Z" fill="#E0E0E0"/>
<path d="M79.7836 199.789H81.9572V193.612H77.5112L79.7836 199.789Z" fill="#FAFAFA"/>
<path d="M39.2236 128.086H27.7888V199.794H39.2236V128.086Z" fill="#E0E0E0"/>
<path d="M81.9573 128.086H37.3257V196.004H81.9573V128.086Z" fill="#FAFAFA"/>
<path d="M80.0332 130V145.377H39.2496V130H80.0332ZM80.2724 129.766H39V145.6H80.262V129.771L80.2724 129.766Z" fill="#E0E0E0"/>
<path d="M80.0333 147.254V188.037H60.6061V147.254H80.0333ZM80.2725 147.014H60.3721V188.276H80.2725V147.014Z" fill="#E0E0E0"/>
<path d="M58.6768 147.254V188.037H39.2496V147.254H58.6768ZM58.9108 147.014H39V188.276H58.9004V147.014H58.9108Z" fill="#E0E0E0"/>
<path d="M39.4993 199.789H37.3257V193.612H41.7769L39.4993 199.789Z" fill="#FAFAFA"/>
<path d="M58.4895 137.696C58.4885 137.925 58.5553 138.148 58.6815 138.339C58.8077 138.529 58.9877 138.678 59.1985 138.766C59.4094 138.854 59.6416 138.878 59.8659 138.834C60.0902 138.79 60.2964 138.681 60.4583 138.519C60.6203 138.358 60.7308 138.152 60.7757 137.928C60.8207 137.704 60.7981 137.472 60.7109 137.261C60.6237 137.049 60.4758 136.869 60.2858 136.742C60.0958 136.615 59.8724 136.547 59.6439 136.547C59.3386 136.547 59.0458 136.668 58.8295 136.883C58.6131 137.099 58.4909 137.391 58.4895 137.696Z" fill="#E6E6E6"/>
<path d="M62.6079 166.676C62.6079 166.904 62.6758 167.128 62.8028 167.318C62.9299 167.507 63.1105 167.655 63.3218 167.743C63.533 167.83 63.7654 167.852 63.9895 167.807C64.2135 167.763 64.4192 167.652 64.5804 167.49C64.7417 167.328 64.8512 167.122 64.8952 166.898C64.9391 166.673 64.9155 166.441 64.8273 166.23C64.7392 166.019 64.5904 165.839 64.3999 165.713C64.2094 165.587 63.9857 165.52 63.7571 165.521C63.6058 165.521 63.4559 165.551 63.3161 165.609C63.1764 165.667 63.0495 165.752 62.9427 165.86C62.8359 165.967 62.7513 166.094 62.6939 166.234C62.6365 166.374 62.6072 166.524 62.6079 166.676Z" fill="#E6E6E6"/>
<path d="M54.3765 166.676C54.3775 166.903 54.4458 167.124 54.5727 167.313C54.6996 167.501 54.8794 167.647 55.0895 167.734C55.2996 167.82 55.5305 167.842 55.753 167.797C55.9756 167.752 56.1799 167.642 56.3401 167.481C56.5003 167.32 56.6092 167.116 56.6532 166.893C56.6971 166.67 56.674 166.439 56.5869 166.229C56.4998 166.02 56.3525 165.841 56.1636 165.715C55.9747 165.589 55.7527 165.521 55.5257 165.521C55.3743 165.521 55.2245 165.551 55.0847 165.609C54.9449 165.667 54.818 165.752 54.7112 165.86C54.6044 165.967 54.5199 166.094 54.4625 166.234C54.405 166.374 54.3758 166.524 54.3765 166.676Z" fill="#E6E6E6"/>
<path d="M53.0764 108.093H48.256C48.7002 110.431 48.98 112.797 49.0932 115.175C49.0932 117.775 45.422 128.087 50.6532 128.087C55.8844 128.087 52.2132 117.801 52.2132 115.175C52.335 112.797 52.6234 110.43 53.0764 108.093Z" fill="#E0E0E0"/>
<path d="M34.7361 118.638V121.758C34.7416 123.431 35.4084 125.033 36.5911 126.216C37.7738 127.399 39.3763 128.065 41.0489 128.071H44.1689C45.8415 128.065 47.444 127.399 48.6266 126.216C49.8093 125.033 50.4762 123.431 50.4817 121.758V118.638H34.7361Z" fill="#F5F5F5"/>
<path d="M101.748 147.815C101.748 151.455 105.82 154.43 110.796 154.43H115.289C120.265 154.43 124.337 151.455 124.337 147.815H101.748Z" fill="#E0E0E0"/>
<path d="M220.797 142.48C218.072 144.706 214.308 148.777 210.865 154.508C208.567 158.325 207.184 162.308 206.575 167.601C206.575 161.621 206.612 155.199 206.632 149.136C207.324 147.576 208.905 143.978 210.038 141.139C213.819 131.659 215.238 129.324 218.634 121.15C223.174 110.23 227.822 97.3026 226.491 98.3374C223.777 100.443 213.377 119.917 212.254 122.705C209.192 130.143 207.299 138.01 206.643 146.027C206.643 140.307 206.684 135.107 206.705 131.071C206.778 117.91 207.002 113.662 207.111 112.351C207.532 111.686 208.026 110.911 208.317 110.495C210.761 106.959 211.702 103.953 214.001 98.6806C217.266 91.2186 220.074 77.9638 219.253 78.6294C215.831 81.4166 213.138 87.3966 209.591 95.025C206.045 102.653 207.059 107.037 206.357 113.547C206.211 114.827 206.097 119.652 206.014 126.334C205.098 119.21 203.372 114.52 200.226 110.256C196.357 105.009 192.613 101.468 189.868 99.6166C187.122 97.7654 194.61 110.651 198.188 116.257C201.375 121.269 204.313 125.684 205.988 130.037C205.899 139.1 205.858 150.571 205.858 161.237C205.036 156.38 203.694 151.143 201.906 147.093C199.753 142.225 196.446 134.758 193.809 132.226C193.18 131.617 196.565 146.141 198.739 149.999C200.912 153.858 202.509 157.503 203.876 159.692C204.194 160.212 205.254 162.173 205.858 163.306C205.858 176.343 205.93 187.845 206.045 191.761H206.606C206.57 190.752 206.56 184.117 206.575 175.339C207.932 170.576 211.032 165.137 213.59 160.176C216.377 154.804 223.522 140.27 220.797 142.48Z" fill="#E0E0E0"/>
<path d="M214.469 199.789H198.172L196.94 183.815H215.701L214.469 199.789Z" fill="#F0F0F0"/>
<path d="M216.913 185.677H195.723L195.12 180.284H217.521L216.913 185.677Z" fill="#F5F5F5"/>
<path d="M64.6152 39.26H35.4692V71.266H64.6152V39.26Z" fill="#E0E0E0"/>
<path d="M67.7716 39.26H37.6636V71.266H67.7716V39.26Z" fill="#F5F5F5"/>
<path d="M65.2495 68.744V41.782H40.1855V68.744H65.2495Z" fill="white"/>
<path d="M59.1709 62.2024V48.3132H46.2593V62.2024H59.1709Z" fill="#F5F5F5"/>
<path d="M213.226 42.9885H186.15V72.7221H213.226V42.9885Z" fill="#E0E0E0"/>
<path d="M216.159 42.9885H188.193V72.7221H216.159V42.9885Z" fill="#F5F5F5"/>
<path d="M213.819 70.3769V45.3337H190.538V70.3769H213.819Z" fill="white"/>
<path d="M202.176 65.1196C206.188 65.1196 209.44 61.8672 209.44 57.8552C209.44 53.8432 206.188 50.5908 202.176 50.5908C198.164 50.5908 194.912 53.8432 194.912 57.8552C194.912 61.8672 198.164 65.1196 202.176 65.1196Z" fill="#F5F5F5"/>
<path d="M94.8948 58.344H73.2732V82.0872H94.8948V58.344Z" fill="#E0E0E0"/>
<path d="M97.2349 58.344H74.9009V82.0872H97.2349V58.344Z" fill="#F5F5F5"/>
<path d="M95.3628 80.2153V60.2161H76.7728V80.2153H95.3628Z" fill="white"/>
<path d="M86.0705 65.156L80.9849 73.9648H91.1561L86.0705 65.156Z" fill="#F5F5F5"/>
<path d="M130 222.331C185.683 222.331 230.823 219.696 230.823 216.445C230.823 213.194 185.683 210.558 130 210.558C74.3172 210.558 29.1772 213.194 29.1772 216.445C29.1772 219.696 74.3172 222.331 130 222.331Z" fill="#F5F5F5"/>
<path d="M181.61 84.9836L176.452 82.9036C176.452 82.9036 169.645 95.316 167.695 95.9452C165.043 96.798 159.552 99.1692 156.296 99.5852C155.854 100.105 155.132 101.722 155.199 102.31C159.572 103.771 169.182 101.832 171.241 100.303C175.926 96.8344 181.61 84.9836 181.61 84.9836Z" fill="#E58A7B"/>
<path d="M183.196 82.16C184.158 85.7116 178.947 92.8564 178.947 92.8564L172.12 89.0292C172.12 89.0292 173.399 86.0912 174.959 83.1012C177.46 78.2704 182.099 78.1092 183.196 82.16Z" fill="#06283D"/>
<path opacity="0.2" d="M183.196 82.16C184.158 85.7116 178.947 92.8564 178.947 92.8564L172.12 89.0292C172.12 89.0292 173.399 86.0912 174.959 83.1012C177.46 78.2704 182.099 78.1092 183.196 82.16Z" fill="black"/>
<path opacity="0.2" d="M174.829 90.5579L177.518 92.0659L177.991 83.8135C176.426 85.0147 175.323 88.6339 174.829 90.5579Z" fill="black"/>
<path d="M178.703 79.4871C178.703 79.4871 173.389 91.3119 176.488 113.329H197.428C197.761 110.115 196.659 94.4319 200.647 79.2895C198.35 78.8405 196.026 78.5435 193.689 78.4003C190.726 78.2286 187.756 78.2286 184.792 78.4003C182.738 78.6089 180.703 78.9722 178.703 79.4871Z" fill="#06283D"/>
<path opacity="0.2" d="M178.703 79.4871C178.703 79.4871 173.389 91.3119 176.488 113.329H197.428C197.761 110.115 196.659 94.4319 200.647 79.2895C198.35 78.8405 196.026 78.5435 193.689 78.4003C190.726 78.2286 187.756 78.2286 184.792 78.4003C182.738 78.6089 180.703 78.9722 178.703 79.4871Z" fill="black"/>
<g style="mix-blend-mode:multiply">
<path d="M173.846 216.913C173.815 217.474 181.755 217.927 191.578 217.927C201.401 217.927 209.399 217.474 209.43 216.913C209.461 216.351 201.526 215.904 191.698 215.904C181.87 215.904 173.883 216.356 173.846 216.913Z" fill="#E8ECF1"/>
</g>
<path d="M187.824 202.157L184.11 203.594L187.31 211.859L191.024 210.421L187.824 202.157Z" fill="#E58A7B"/>
<path d="M204.386 212.914H200.47L199.035 203.85H202.951L204.386 212.914Z" fill="#E58A7B"/>
<path d="M200.2 212.461H204.599C204.676 212.462 204.749 212.489 204.807 212.538C204.865 212.588 204.904 212.657 204.916 212.732L205.483 216.211C205.495 216.298 205.488 216.387 205.463 216.471C205.437 216.555 205.394 216.633 205.336 216.699C205.278 216.765 205.206 216.818 205.125 216.854C205.045 216.89 204.958 216.908 204.87 216.907C203.336 216.881 202.597 216.788 200.663 216.788C199.472 216.788 197.023 216.913 195.369 216.913C193.716 216.913 193.606 215.29 194.288 215.139C197.345 214.479 198.531 213.579 199.55 212.706C199.73 212.548 199.961 212.461 200.2 212.461Z" fill="#263238"/>
<path d="M187.2 211.12L191.36 209.903C191.434 209.882 191.513 209.887 191.584 209.917C191.655 209.948 191.714 210.001 191.75 210.069L193.31 213.189C193.346 213.269 193.365 213.355 193.364 213.442C193.364 213.529 193.344 213.615 193.307 213.693C193.27 213.772 193.216 213.842 193.149 213.898C193.082 213.953 193.004 213.994 192.92 214.016C191.407 214.432 190.393 214.687 188.5 215.238C187.195 215.618 185.864 216.237 184.574 216.647C183.68 216.933 181.579 216.944 180.492 216.944C178.885 216.944 178.526 215.249 179.218 215.171C180.96 214.978 181.194 215.067 182.156 214.583C183.73 213.895 185.157 212.91 186.358 211.681C186.584 211.423 186.875 211.23 187.2 211.12Z" fill="#263238"/>
<path d="M156.952 99.5642L152.646 97.7598L150.873 102.533C152.638 102.802 154.433 102.802 156.198 102.533L156.952 99.5642Z" fill="#E58A7B"/>
<path d="M149.443 97.635L149.328 100.807L150.873 102.523L152.646 97.7494L149.443 97.635Z" fill="#E58A7B"/>
<path d="M188.334 202.858L184.608 204.297L186.258 208.57L189.984 207.132L188.334 202.858Z" fill="#CF6F64"/>
<path d="M202.951 203.85H199.035L199.779 208.525H203.694L202.951 203.85Z" fill="#CF6F64"/>
<path opacity="0.2" d="M175.822 107.375C175.9 108.316 175.989 109.278 176.103 110.266L191.672 105.211C194.103 104.491 196.216 102.963 197.662 100.88C197.725 99.4914 197.803 98.0302 197.922 96.5066C197.974 95.7682 198.037 95.009 198.104 94.2394C198.172 93.4698 198.265 92.617 198.364 91.7954L175.822 107.375Z" fill="black"/>
<path d="M180.908 90.3186L180.388 90.2562C180.695 87.6562 182.634 85.6074 184.678 85.6594V86.1794C182.889 86.143 181.184 87.989 180.908 90.3186Z" fill="white"/>
<path d="M183.679 95.1182H183.591V94.5982C185.38 94.6658 187.059 92.799 187.335 90.4746L187.855 90.537C187.579 93.0798 185.702 95.1182 183.679 95.1182Z" fill="white"/>
<path d="M193.398 68.3799C192.665 71.2451 191.802 76.4919 193.69 78.4003C193.69 78.4003 192.369 81.3071 187.049 81.3071C182.187 81.3071 184.792 78.4003 184.792 78.4003C188.027 77.6411 188.084 75.2803 187.658 73.0443L193.398 68.3799Z" fill="#E58A7B"/>
<path d="M191.058 70.2832L187.663 73.0444C187.768 73.5582 187.829 74.0801 187.845 74.6044C188.838 75.5924 190.83 73.0912 191.032 71.812C191.135 71.3084 191.144 70.79 191.058 70.2832Z" fill="#CF6F64"/>
<path d="M181.823 68.3435C182.06 68.753 182.378 69.1094 182.758 69.3904C183.138 69.6713 183.572 69.8708 184.033 69.9763C185.281 70.2519 185.905 69.1027 185.562 67.9483C185.255 66.9083 184.231 65.5095 182.962 65.7487C182.69 65.8047 182.436 65.925 182.22 66.0995C182.004 66.274 181.834 66.4977 181.722 66.7518C181.611 67.0059 181.562 67.283 181.579 67.56C181.597 67.8369 181.68 68.1056 181.823 68.3435Z" fill="#CF6F64"/>
<path d="M183.888 59.1759C181.943 60.0651 181.256 67.7923 183.7 68.9363C186.144 70.0803 187.569 57.4859 183.888 59.1759Z" fill="#263238"/>
<path d="M193.991 64.069C193.523 67.9482 193.471 70.231 191.391 72.2174C190.747 72.8766 189.933 73.3449 189.039 73.5705C188.145 73.7961 187.206 73.7703 186.326 73.4959C185.446 73.2215 184.658 72.7092 184.051 72.0156C183.444 71.3221 183.04 70.4741 182.884 69.5654C182.255 66.0814 183.123 60.325 187.013 58.7806C187.83 58.4202 188.729 58.2848 189.616 58.3887C190.503 58.4926 191.346 58.8318 192.058 59.3713C192.77 59.9108 193.325 60.6309 193.665 61.4569C194.004 62.2829 194.117 63.1848 193.991 64.069Z" fill="#E58A7B"/>
<path d="M187.6 61.1831C190.481 60.4499 192.598 59.9507 191.838 62.3479C190.835 65.5511 189.628 68.6503 191.246 68.7907C192.234 68.8791 196.602 67.0279 196.045 65.1507C195.562 63.5179 197.605 63.0707 197.969 62.2439C199.316 59.2487 195.463 59.6439 196.149 57.8239C196.836 56.0039 193.029 53.0711 190.949 54.5323C187.564 56.8931 181.756 56.8567 184.808 52.9723C186.997 50.2007 183.092 50.7675 183.092 50.7675C183.092 50.7675 185.453 52.1663 181.48 54.3295C177.278 56.6383 181.132 62.8419 187.6 61.1831Z" fill="#263238"/>
<path d="M195.52 68.3435C194.951 69.1664 194.097 69.7484 193.123 69.9763C191.838 70.2519 191.344 69.1027 191.828 67.9483C192.259 66.9083 193.445 65.5095 194.672 65.7487C195.899 65.9879 196.18 67.3243 195.52 68.3435Z" fill="#E58A7B"/>
<path d="M176.488 113.329C176.488 113.329 172.973 144.789 172.697 156.728C172.416 169.145 184.61 207.891 184.61 207.891L190.85 205.291C190.85 205.291 183.57 169.889 184.61 157.695C185.713 144.399 190.268 113.349 190.268 113.349L176.488 113.329Z" fill="#06283D"/>
<path opacity="0.2" d="M185.224 121.966C182.421 127.779 184.309 139.277 185.827 146.089C186.404 141.279 187.091 136.058 187.741 131.227C187.678 123.801 187.101 118.066 185.224 121.966Z" fill="black"/>
<path d="M190.575 203.231C190.606 203.231 191.313 205.218 191.313 205.218L184.116 208.244L182.983 206.133L190.575 203.231Z" fill="#06283D"/>
<path d="M183.919 113.329C183.919 113.329 186.607 143.249 188.385 154.455C190.341 166.733 198.005 207.62 198.005 207.62H205.176C205.176 207.62 200.881 167.726 200.07 155.568C199.186 142.381 197.428 113.329 197.428 113.329H183.919Z" fill="#06283D"/>
<path d="M205.286 205.753C205.317 205.753 205.525 207.755 205.525 207.755H197.642L197.08 205.457L205.286 205.753Z" fill="#06283D"/>
<path opacity="0.2" d="M202.54 203.382C202.524 203.382 202.508 203.377 202.496 203.366C202.483 203.356 202.475 203.341 202.472 203.325C202.431 202.961 198.557 166.925 197.829 156.005C197.038 144.159 195.447 117.884 195.432 117.619C195.431 117.61 195.432 117.601 195.435 117.593C195.438 117.585 195.442 117.577 195.448 117.571C195.454 117.565 195.461 117.56 195.469 117.556C195.477 117.553 195.485 117.551 195.494 117.551C195.511 117.551 195.528 117.557 195.54 117.569C195.553 117.581 195.56 117.596 195.562 117.613C195.562 117.879 197.168 144.133 197.959 156C198.687 166.92 202.561 202.93 202.597 203.32C202.599 203.328 202.598 203.337 202.596 203.346C202.594 203.354 202.59 203.362 202.585 203.369C202.579 203.376 202.573 203.381 202.565 203.386C202.557 203.39 202.549 203.392 202.54 203.393V203.382Z" fill="black"/>
<path d="M188.042 65.1506C188.042 65.4678 187.845 65.7226 187.637 65.7226C187.429 65.7226 187.278 65.4678 187.299 65.1506C187.32 64.8334 187.496 64.5786 187.704 64.5786C187.912 64.5786 188.063 64.8386 188.042 65.1506Z" fill="#263238"/>
<path d="M184.475 65.1506C184.475 65.4678 184.272 65.7226 184.07 65.7226C183.867 65.7226 183.711 65.4678 183.726 65.1506C183.742 64.8334 183.929 64.5786 184.137 64.5786C184.345 64.5786 184.496 64.8386 184.475 65.1506Z" fill="#263238"/>
<path d="M185.598 65.3118C185.164 66.2804 184.605 67.1877 183.934 68.0106C184.454 68.5306 185.427 68.2914 185.427 68.2914L185.598 65.3118Z" fill="#DF5753"/>
<path d="M185.692 69.6174C185.68 69.6174 185.668 69.615 185.657 69.6102C185.646 69.6055 185.636 69.5985 185.628 69.5897C185.619 69.5809 185.613 69.5706 185.609 69.5592C185.605 69.5479 185.603 69.5359 185.604 69.5238C185.605 69.4985 185.616 69.4747 185.634 69.4573C185.653 69.4399 185.677 69.4302 185.702 69.4302C186.1 69.433 186.493 69.3466 186.853 69.1774C187.213 69.0082 187.531 68.7606 187.782 68.4526C187.8 68.4369 187.824 68.4282 187.847 68.4282C187.871 68.4282 187.894 68.4369 187.912 68.4526C187.929 68.4701 187.939 68.4934 187.939 68.5176C187.939 68.5419 187.929 68.5652 187.912 68.5826C187.643 68.9099 187.304 69.1727 186.92 69.3518C186.535 69.5309 186.116 69.6216 185.692 69.6174Z" fill="#263238"/>
<path d="M188.677 64.1939C188.652 64.2067 188.624 64.2133 188.596 64.2133C188.568 64.2133 188.541 64.2067 188.516 64.1939C188.321 64.0681 188.1 63.9899 187.869 63.9655C187.639 63.9411 187.406 63.9713 187.19 64.0535C187.168 64.0641 187.145 64.0703 187.122 64.0718C187.098 64.0733 187.075 64.0701 187.052 64.0623C187.03 64.0546 187.01 64.0425 186.992 64.0266C186.975 64.0108 186.96 63.9917 186.95 63.9703C186.931 63.924 186.931 63.872 186.949 63.8254C186.968 63.7788 187.003 63.7412 187.049 63.7207C187.321 63.6097 187.616 63.5659 187.908 63.593C188.2 63.6202 188.482 63.7175 188.729 63.8767C188.749 63.8902 188.766 63.9076 188.779 63.9278C188.792 63.948 188.801 63.9706 188.805 63.9943C188.81 64.018 188.809 64.0424 188.804 64.0659C188.799 64.0895 188.789 64.1117 188.776 64.1315C188.749 64.1613 188.715 64.183 188.677 64.1939Z" fill="#263238"/>
<path d="M183.097 63.1539C183.069 63.1471 183.044 63.1327 183.024 63.1123C183.007 63.0953 182.993 63.0751 182.984 63.0528C182.975 63.0304 182.97 63.0065 182.97 62.9823C182.97 62.958 182.975 62.9341 182.984 62.9117C182.993 62.8894 183.007 62.8692 183.024 62.8523C183.224 62.6287 183.472 62.4542 183.75 62.3424C184.027 62.2305 184.327 62.1844 184.626 62.2075C184.65 62.2111 184.673 62.2197 184.693 62.2326C184.714 62.2455 184.731 62.2625 184.745 62.2825C184.759 62.3025 184.768 62.325 184.773 62.3488C184.777 62.3726 184.777 62.397 184.772 62.4207C184.76 62.4688 184.732 62.5112 184.692 62.5399C184.652 62.5687 184.602 62.5817 184.553 62.5766C184.317 62.5618 184.08 62.6008 183.861 62.6909C183.642 62.781 183.447 62.9198 183.29 63.0966C183.266 63.123 183.235 63.1422 183.201 63.1523C183.167 63.1624 183.131 63.1629 183.097 63.1539Z" fill="#263238"/>
<path d="M202.66 84.4062L197.252 82.9658C197.252 82.9658 191.948 96.023 190.07 96.8706C187.522 98.0354 181.069 102.071 178.324 103.979C178.173 104.629 178.292 106.35 178.636 106.823C183.316 105.971 192.275 102.523 194.147 100.771C198.416 96.7718 202.66 84.4062 202.66 84.4062Z" fill="#E58A7B"/>
<path d="M198.884 213.148C198.62 213.169 198.357 213.097 198.141 212.945C198.074 212.885 198.024 212.808 197.995 212.722C197.967 212.636 197.962 212.545 197.98 212.456C197.983 212.401 198.001 212.348 198.032 212.302C198.063 212.256 198.106 212.22 198.156 212.196C198.593 211.973 199.815 212.748 199.956 212.836C199.971 212.845 199.983 212.86 199.989 212.877C199.996 212.894 199.997 212.912 199.992 212.93C199.987 212.948 199.978 212.964 199.966 212.978C199.953 212.992 199.937 213.002 199.919 213.008C199.58 213.091 199.233 213.138 198.884 213.148ZM198.364 212.337C198.325 212.328 198.284 212.328 198.245 212.337C198.225 212.347 198.208 212.363 198.197 212.382C198.186 212.401 198.181 212.424 198.182 212.446C198.168 212.506 198.171 212.57 198.189 212.629C198.207 212.688 198.241 212.742 198.286 212.784C198.489 212.966 198.999 212.987 199.67 212.857C199.27 212.594 198.82 212.417 198.349 212.337H198.364Z" fill="#06283D"/>
<path d="M199.893 213.008C199.88 213.012 199.865 213.012 199.852 213.008C199.462 212.789 198.728 211.931 198.838 211.494C198.854 211.425 198.893 211.363 198.949 211.319C199.004 211.275 199.073 211.25 199.144 211.25C199.214 211.241 199.285 211.246 199.352 211.267C199.42 211.288 199.482 211.323 199.534 211.37C199.966 211.739 199.992 212.872 199.992 212.93C199.995 212.947 199.991 212.964 199.983 212.979C199.974 212.994 199.961 213.006 199.945 213.013C199.928 213.016 199.91 213.014 199.893 213.008ZM199.196 211.422H199.16C199.04 211.422 199.025 211.489 199.02 211.515C198.957 211.77 199.42 212.42 199.805 212.727C199.803 212.287 199.667 211.859 199.415 211.5C199.354 211.447 199.276 211.419 199.196 211.422Z" fill="#06283D"/>
<path d="M185.078 212.498C184.76 212.609 184.414 212.609 184.096 212.498C184.023 212.459 183.962 212.402 183.918 212.333C183.873 212.264 183.847 212.185 183.841 212.103C183.834 212.051 183.841 211.999 183.86 211.951C183.879 211.903 183.91 211.86 183.95 211.827C184.366 211.453 186.066 211.827 186.259 211.9C186.277 211.905 186.293 211.915 186.305 211.931C186.316 211.946 186.322 211.964 186.321 211.983C186.322 212.003 186.317 212.022 186.307 212.039C186.297 212.055 186.282 212.069 186.264 212.077C185.881 212.25 185.485 212.391 185.078 212.498ZM184.231 211.879C184.171 211.891 184.116 211.918 184.07 211.957C184.053 211.97 184.04 211.986 184.033 212.006C184.026 212.025 184.024 212.046 184.028 212.066C184.031 212.121 184.048 212.174 184.078 212.22C184.107 212.266 184.147 212.305 184.194 212.332C184.47 212.477 185.11 212.363 185.936 212.014C185.38 211.874 184.803 211.828 184.231 211.879Z" fill="#06283D"/>
<path d="M186.248 212.077H186.207C185.687 211.983 184.647 211.385 184.615 210.938C184.615 210.834 184.662 210.688 184.912 210.605C184.996 210.575 185.086 210.562 185.175 210.568C185.264 210.573 185.352 210.596 185.432 210.636C185.993 210.912 186.29 211.91 186.305 211.957C186.309 211.973 186.309 211.989 186.304 212.005C186.3 212.02 186.291 212.034 186.279 212.045C186.272 212.058 186.261 212.069 186.248 212.077ZM185.016 210.761H184.964C184.803 210.818 184.803 210.886 184.803 210.907C184.803 211.177 185.557 211.671 186.082 211.837C185.961 211.42 185.705 211.054 185.354 210.797C185.249 210.744 185.129 210.731 185.016 210.761Z" fill="#06283D"/>
<path d="M178.766 103.672L173.342 106.168L172.713 107.728L174.715 109.075C174.715 109.075 178.459 108.67 179.525 106.262L178.766 103.672Z" fill="#E58A7B"/>
<path d="M178.994 106.912C178.873 105.87 178.529 104.866 177.986 103.969L178.844 103.324C179.489 104.358 179.901 105.52 180.05 106.73L178.994 106.912Z" fill="#263238"/>
<path d="M179.92 104.411C180.035 104.591 180.091 104.802 180.081 105.016C180.072 105.229 179.997 105.435 179.866 105.604C179.735 105.773 179.556 105.898 179.352 105.962C179.148 106.025 178.929 106.024 178.726 105.959C178.522 105.894 178.344 105.768 178.214 105.598C178.085 105.428 178.011 105.222 178.003 105.008C177.995 104.795 178.053 104.584 178.169 104.404C178.285 104.225 178.453 104.085 178.651 104.005C178.874 103.892 179.131 103.871 179.369 103.947C179.607 104.023 179.805 104.189 179.92 104.411Z" fill="#263238"/>
<path d="M169.676 108.186L170.399 108.914L175.266 106.834L173.342 106.168L169.676 108.186Z" fill="#E58A7B"/>
<path opacity="0.2" d="M190.575 203.231C190.606 203.231 191.313 205.218 191.313 205.218L184.116 208.244L182.983 206.133L190.575 203.231Z" fill="black"/>
<path opacity="0.2" d="M205.286 205.753C205.317 205.753 205.525 207.755 205.525 207.755H197.642L197.08 205.457L205.286 205.753Z" fill="black"/>
<path d="M204.069 82.9087C205.499 87.5211 199.909 93.8287 199.909 93.8287L192.187 90.6775C193.102 88.0116 194.157 85.3958 195.348 82.8411C197.72 77.7295 202.623 78.2547 204.069 82.9087Z" fill="#06283D"/>
<path opacity="0.2" d="M204.069 82.9087C205.499 87.5211 199.909 93.8287 199.909 93.8287L192.187 90.6775C193.102 88.0116 194.157 85.3958 195.348 82.8411C197.72 77.7295 202.623 78.2547 204.069 82.9087Z" fill="black"/>
<path d="M127.337 36.6963H124.015V37.2319H127.337V36.6963Z" fill="#06283D"/>
<path d="M170.351 57.8948L169.949 66.8193L170.484 66.8434L170.886 57.9189L170.351 57.8948Z" fill="#06283D"/>
<path d="M169.317 39.0986H107.957L102.248 166.873H163.608L169.317 39.0986Z" fill="#06283D"/>
<path opacity="0.56" d="M167.487 40.8562H106.127L100.417 168.631H161.777L167.487 40.8562Z" fill="#FAFAFA"/>
<path opacity="0.07" d="M165.656 42.6086H104.296L98.5815 170.383H159.942L165.656 42.6086Z" fill="#06283D"/>
<path d="M158.673 98.3372H106.298L105.862 108.113H158.236L158.673 98.3372Z" fill="white"/>
<path d="M135.101 91.2026H106.615L106.423 95.5758H134.909L135.101 91.2026Z" fill="#06283D"/>
<path d="M157.492 124.722H105.118L104.681 134.498H157.056L157.492 124.722Z" fill="white"/>
<path opacity="0.47" d="M147.888 147.701H112.668L112.143 159.416H147.363L147.888 147.701Z" fill="#06283D"/>
<path d="M145.532 161.236H110.313C110.297 161.24 110.281 161.24 110.266 161.236C110.261 161.221 110.261 161.205 110.266 161.189L110.786 149.469C110.786 149.461 110.787 149.453 110.791 149.445C110.794 149.438 110.798 149.432 110.804 149.426C110.81 149.421 110.817 149.417 110.825 149.414C110.832 149.412 110.84 149.411 110.848 149.411H146.068C146.074 149.408 146.081 149.406 146.089 149.406C146.096 149.406 146.103 149.408 146.109 149.411C146.113 149.418 146.115 149.425 146.115 149.432C146.115 149.439 146.113 149.447 146.109 149.453L145.6 161.2C145.594 161.212 145.584 161.222 145.572 161.228C145.56 161.235 145.546 161.238 145.532 161.236ZM110.375 161.111H145.47L145.99 149.515H110.895L110.375 161.111Z" fill="white"/>
<path d="M128.949 117.587H105.435L105.243 121.966H128.752L128.949 117.587Z" fill="#06283D"/>
<path d="M147.217 66.7575C147.083 69.6026 146.071 72.3364 144.321 74.5835C143.025 76.2809 141.358 77.6588 139.447 78.6116C137.536 79.5644 135.432 80.0667 133.297 80.0799C131.571 80.0931 129.861 79.7528 128.272 79.0801C126.683 78.4074 125.249 77.4165 124.057 76.1684C122.865 74.9203 121.942 73.4414 121.344 71.823C120.745 70.2045 120.484 68.4806 120.577 66.7575C120.76 63.182 122.302 59.8114 124.888 57.335C127.473 54.8587 130.907 53.4636 134.487 53.4351C136.214 53.419 137.926 53.7572 139.517 54.4287C141.108 55.1003 142.544 56.091 143.737 57.3395C144.93 58.5881 145.855 60.068 146.453 61.6879C147.052 63.3078 147.312 65.0332 147.217 66.7575Z" fill="white"/>
<path d="M148.47 56.2222C148.436 56.9787 148.167 57.7058 147.701 58.3022C147.356 58.753 146.912 59.119 146.404 59.3722C145.895 59.6255 145.336 59.7592 144.768 59.7634C144.218 59.7667 143.675 59.6353 143.188 59.3806C142.7 59.1259 142.282 58.7556 141.97 58.3022C141.558 57.6894 141.354 56.9601 141.388 56.2222C141.438 55.2729 141.849 54.3785 142.536 53.7214C143.223 53.0644 144.135 52.6941 145.085 52.6862C145.544 52.682 145.998 52.7718 146.421 52.9499C146.844 53.1281 147.225 53.3909 147.542 53.7222C147.86 54.0535 148.105 54.4462 148.265 54.8762C148.425 55.3061 148.495 55.7642 148.47 56.2222Z" fill="#06283D"/>
<path d="M111.94 103.225C111.915 103.644 111.733 104.038 111.429 104.328C111.125 104.617 110.722 104.781 110.302 104.785C110.1 104.788 109.899 104.748 109.712 104.67C109.525 104.592 109.356 104.476 109.216 104.33C109.075 104.183 108.966 104.01 108.896 103.82C108.825 103.63 108.794 103.427 108.805 103.225C108.827 102.805 109.009 102.41 109.314 102.12C109.618 101.83 110.022 101.667 110.443 101.665C110.645 101.663 110.846 101.703 111.032 101.782C111.219 101.86 111.388 101.976 111.528 102.122C111.668 102.268 111.777 102.442 111.848 102.631C111.919 102.821 111.95 103.023 111.94 103.225Z" fill="#263238"/>
<path d="M118.95 103.225C118.926 103.645 118.744 104.039 118.439 104.329C118.135 104.619 117.732 104.782 117.312 104.785C117.11 104.787 116.909 104.747 116.723 104.668C116.537 104.59 116.368 104.474 116.229 104.328C116.089 104.182 115.98 104.008 115.91 103.819C115.84 103.629 115.809 103.427 115.819 103.225C115.842 102.806 116.023 102.411 116.327 102.122C116.63 101.832 117.033 101.669 117.452 101.665C117.655 101.663 117.856 101.702 118.043 101.78C118.23 101.859 118.399 101.974 118.539 102.121C118.679 102.267 118.788 102.44 118.859 102.63C118.93 102.82 118.961 103.023 118.95 103.225Z" fill="#263238"/>
<path d="M125.965 103.225C125.941 103.645 125.758 104.039 125.454 104.329C125.15 104.619 124.747 104.782 124.327 104.785C124.124 104.787 123.924 104.747 123.737 104.668C123.551 104.59 123.382 104.474 123.242 104.328C123.102 104.182 122.993 104.009 122.922 103.819C122.851 103.629 122.819 103.427 122.829 103.225C122.853 102.806 123.035 102.411 123.34 102.121C123.644 101.832 124.047 101.668 124.467 101.665C124.67 101.663 124.871 101.702 125.058 101.78C125.245 101.859 125.414 101.974 125.554 102.121C125.694 102.267 125.803 102.44 125.874 102.63C125.945 102.82 125.975 103.023 125.965 103.225Z" fill="#263238"/>
<path d="M110.76 129.61C110.735 130.029 110.552 130.423 110.248 130.712C109.944 131.002 109.542 131.165 109.122 131.17C108.919 131.172 108.719 131.132 108.532 131.053C108.346 130.975 108.177 130.859 108.037 130.713C107.897 130.567 107.788 130.393 107.717 130.204C107.646 130.014 107.614 129.812 107.624 129.61C107.648 129.19 107.831 128.796 108.135 128.506C108.439 128.216 108.842 128.053 109.262 128.05C109.465 128.048 109.665 128.088 109.852 128.167C110.039 128.245 110.207 128.361 110.347 128.507C110.488 128.653 110.597 128.826 110.667 129.016C110.738 129.206 110.77 129.408 110.76 129.61Z" fill="#263238"/>
<path d="M117.769 129.61C117.746 130.028 117.564 130.422 117.261 130.712C116.958 131.002 116.556 131.165 116.137 131.17C115.934 131.172 115.733 131.133 115.546 131.055C115.359 130.976 115.19 130.861 115.05 130.714C114.91 130.568 114.801 130.395 114.73 130.205C114.659 130.015 114.628 129.812 114.639 129.61C114.663 129.19 114.845 128.796 115.15 128.506C115.454 128.216 115.857 128.053 116.277 128.05C116.479 128.048 116.68 128.088 116.866 128.167C117.052 128.245 117.221 128.361 117.36 128.507C117.5 128.653 117.609 128.827 117.679 129.016C117.749 129.206 117.78 129.408 117.769 129.61Z" fill="#263238"/>
<path d="M124.8 129.61C124.776 130.029 124.594 130.424 124.289 130.714C123.985 131.004 123.582 131.167 123.162 131.17C122.96 131.171 122.759 131.131 122.573 131.052C122.387 130.973 122.219 130.857 122.079 130.711C121.939 130.565 121.83 130.392 121.758 130.203C121.687 130.014 121.655 129.812 121.664 129.61C121.689 129.191 121.872 128.797 122.176 128.507C122.48 128.218 122.883 128.054 123.302 128.05C123.505 128.047 123.706 128.087 123.893 128.165C124.08 128.243 124.249 128.359 124.389 128.505C124.529 128.652 124.638 128.825 124.709 129.015C124.78 129.205 124.811 129.408 124.8 129.61Z" fill="#263238"/>
<path d="M131.799 129.61C131.774 130.029 131.591 130.423 131.287 130.712C130.983 131.002 130.581 131.165 130.161 131.17C129.959 131.171 129.759 131.131 129.572 131.052C129.386 130.973 129.218 130.857 129.078 130.711C128.938 130.565 128.829 130.392 128.758 130.203C128.686 130.014 128.654 129.812 128.664 129.61C128.689 129.191 128.872 128.797 129.176 128.507C129.479 128.218 129.882 128.054 130.302 128.05C130.504 128.048 130.705 128.088 130.891 128.167C131.078 128.245 131.246 128.361 131.387 128.507C131.527 128.653 131.636 128.826 131.707 129.016C131.778 129.206 131.809 129.408 131.799 129.61Z" fill="#263238"/>
<path d="M138.84 129.61C138.815 130.029 138.632 130.423 138.328 130.712C138.024 131.002 137.622 131.165 137.202 131.17C136.999 131.172 136.798 131.133 136.611 131.055C136.425 130.976 136.256 130.861 136.115 130.714C135.975 130.568 135.866 130.395 135.795 130.205C135.725 130.015 135.694 129.812 135.704 129.61C135.728 129.19 135.911 128.796 136.215 128.506C136.519 128.216 136.922 128.053 137.342 128.05C137.545 128.048 137.746 128.088 137.932 128.167C138.119 128.245 138.287 128.361 138.427 128.507C138.568 128.653 138.677 128.826 138.748 129.016C138.818 129.206 138.85 129.408 138.84 129.61Z" fill="#263238"/>
<path d="M137.776 66.0637C139.952 63.9353 140.068 60.5238 138.034 58.4438C136 56.3638 132.586 56.4031 130.41 58.5315C128.233 60.6599 128.118 64.0714 130.152 66.1514C132.186 68.2314 135.599 68.1921 137.776 66.0637Z" fill="#06283D"/>
<path d="M144.321 74.5836C143.025 76.2809 141.358 77.6589 139.447 78.6117C137.536 79.5645 135.432 80.0667 133.297 80.08C131.226 80.0976 129.183 79.6054 127.348 78.6468C125.512 77.6883 123.941 76.2929 122.772 74.5836C125.299 72.0668 129.298 70.4236 133.728 70.4236C138.159 70.4236 142.017 72.0668 144.321 74.5836Z" fill="#06283D"/>
<path opacity="0.1" d="M137.776 66.0637C139.952 63.9353 140.068 60.5238 138.034 58.4438C136 56.3638 132.586 56.4031 130.41 58.5315C128.233 60.6599 128.118 64.0714 130.152 66.1514C132.186 68.2314 135.599 68.1921 137.776 66.0637Z" fill="white"/>
<path opacity="0.1" d="M144.321 74.5836C143.025 76.2809 141.358 77.6589 139.447 78.6117C137.536 79.5645 135.432 80.0667 133.297 80.08C131.226 80.0976 129.183 79.6054 127.348 78.6468C125.512 77.6883 123.941 76.2929 122.772 74.5836C125.299 72.0668 129.298 70.4236 133.728 70.4236C138.159 70.4236 142.017 72.0668 144.321 74.5836Z" fill="white"/>
<path d="M67.8133 110.469C67.3193 111.55 66.7993 112.741 66.3469 113.896C65.8945 115.05 65.4317 116.241 65.0313 117.426C64.2137 119.763 63.5911 122.163 63.1697 124.602L63.0553 125.367C63.0443 125.498 63.0567 125.63 63.0917 125.757C63.2144 126.188 63.4077 126.595 63.6637 126.963C64.3314 127.915 65.1061 128.788 65.9725 129.563C66.8859 130.413 67.844 131.213 68.8429 131.96C69.8413 132.73 70.8917 133.479 71.9265 134.186L70.9541 136.011C68.4831 134.935 66.1378 133.59 63.9601 132.002C62.7982 131.155 61.7497 130.162 60.8401 129.048C60.3009 128.386 59.8804 127.634 59.5973 126.828C59.4326 126.324 59.3484 125.798 59.3477 125.268C59.3477 125.143 59.3477 124.961 59.3477 124.873V124.618L59.3997 124.098C59.6978 121.389 60.2674 118.716 61.1001 116.121C61.5057 114.842 61.9373 113.568 62.4313 112.325C62.9253 111.082 63.4349 109.866 64.0641 108.602L67.8133 110.469Z" fill="#E58A7B"/>
<path d="M71.1933 133.864L74.8697 132.002L73.9181 136.037C73.9181 136.037 71.3961 136.745 70.2261 135.517L71.1933 133.864Z" fill="#E58A7B"/>
<path d="M78.234 132.663L77.2564 136.001L73.918 136.037L74.8696 132.002L78.234 132.663Z" fill="#E58A7B"/>
<path d="M83.4235 91C83.6201 91.7206 83.8938 92.418 84.2399 93.08C84.1388 93.1946 84.0086 93.2798 83.863 93.3265C83.7175 93.3732 83.562 93.3797 83.4131 93.3452L83.4235 91Z" fill="#DF5753"/>
<path d="M83.3143 91.0312C83.5297 91.0312 83.7043 90.7635 83.7043 90.4332C83.7043 90.1029 83.5297 89.8352 83.3143 89.8352C83.0989 89.8352 82.9243 90.1029 82.9243 90.4332C82.9243 90.7635 83.0989 91.0312 83.3143 91.0312Z" fill="#263238"/>
<path d="M83.2 89.8562L83.9904 89.6326C83.9904 89.6326 83.6056 90.2462 83.2 89.8562Z" fill="#263238"/>
<path d="M73.2681 94.8169C73.7413 97.2349 74.2145 101.67 72.5193 103.288C72.5193 103.288 73.1849 105.742 77.6829 105.742C82.6281 105.742 80.0437 103.288 80.0437 103.288C77.3449 102.643 77.4125 100.641 77.8857 98.7585L73.2681 94.8169Z" fill="#E58A7B"/>
<path d="M71.9523 89.3049C72.2019 93.3453 72.2227 95.0613 74.2611 97.1361C77.3343 100.256 82.2431 99.0705 83.2051 95.0561C84.0735 91.4161 83.5223 85.4257 79.5651 83.8189C78.6965 83.4611 77.7509 83.3307 76.8179 83.4402C75.8848 83.5497 74.9952 83.8955 74.233 84.4447C73.4708 84.9939 72.8614 85.7285 72.4623 86.579C72.0632 87.4295 71.8877 88.3677 71.9523 89.3049Z" fill="#E58A7B"/>
<path d="M72.3528 84.7601C70.3248 85.4985 67.6208 84.9473 68.6816 91.2029C69.8048 97.8277 68.0784 100.007 68.0784 100.007C68.0784 100.007 75.7692 101.645 83.6212 99.9077C83.6212 99.9077 81.224 95.7165 81.8948 92.6277C82.7528 88.7277 82.0768 87.2873 82.0768 87.2873C82.0768 87.2873 75.2024 83.7201 72.3528 84.7601Z" fill="#263238"/>
<path d="M80.9329 91.4109C80.935 92.1792 81.155 92.9311 81.5673 93.5793C82.1185 94.4217 82.7685 94.0993 82.9297 93.2049C83.0753 92.4197 82.9661 91.0313 82.2641 90.4905C81.5621 89.9497 80.9433 90.4801 80.9329 91.4109Z" fill="#E58A7B"/>
<path d="M70.5901 85.4413C70.0077 83.8033 72.7845 81.2813 78.6605 82.3213C84.5365 83.3613 84.7913 88.2545 84.7913 88.2545L83.6057 86.8401L83.6577 88.3273L77.6205 89.4869L70.5901 85.4413Z" fill="#263238"/>
<path d="M71.0893 103.563C71.0546 103.326 71.114 103.084 71.2548 102.89C71.3957 102.696 71.6068 102.564 71.8433 102.523C73.6737 102.222 77.8337 101.608 79.9241 101.899C81.4841 102.118 81.8897 103.022 81.9573 103.766C81.9678 103.896 81.9504 104.027 81.9062 104.15C81.862 104.273 81.7919 104.385 81.7008 104.479C81.6096 104.572 81.4995 104.645 81.3778 104.693C81.2562 104.74 81.1257 104.761 80.9953 104.754L71.9577 104.348C71.7446 104.338 71.5418 104.254 71.3835 104.111C71.2253 103.967 71.1213 103.774 71.0893 103.563Z" fill="#06283D"/>
<path opacity="0.6" d="M71.0893 103.563C71.0546 103.326 71.114 103.084 71.2548 102.89C71.3957 102.696 71.6068 102.564 71.8433 102.523C73.6737 102.222 77.8337 101.608 79.9241 101.899C81.4841 102.118 81.8897 103.022 81.9573 103.766C81.9678 103.896 81.9504 104.027 81.9062 104.15C81.862 104.273 81.7919 104.385 81.7008 104.479C81.6096 104.572 81.4995 104.645 81.3778 104.693C81.2562 104.74 81.1257 104.761 80.9953 104.754L71.9577 104.348C71.7446 104.338 71.5418 104.254 71.3835 104.111C71.2253 103.967 71.1213 103.774 71.0893 103.563Z" fill="black"/>
<path d="M76.3152 194.407L79.6692 196.737L85.28 189.129L81.926 186.805L76.3152 194.407Z" fill="#E58A7B"/>
<path d="M68.4944 194.257L72.0356 196.274L77.0016 188.23L73.4604 186.212L68.4944 194.257Z" fill="#E58A7B"/>
<path d="M85.2747 189.129L82.3835 193.05L79.0295 190.726L81.9207 186.805L85.2747 189.129Z" fill="#CF6F64"/>
<path d="M73.4551 186.212L77.0015 188.235L74.4431 192.379L70.8967 190.357L73.4551 186.212Z" fill="#CF6F64"/>
<path d="M79.144 128.96C79.144 128.96 92.2376 145.46 89.778 161.242C87.7968 173.987 76.3048 191.246 76.3048 191.246L70.902 188.563C74.7102 180.932 77.9601 173.035 80.626 164.934C81.4481 162.419 81.6881 159.75 81.3277 157.128C80.9674 154.507 80.0162 152.002 78.546 149.802C71.9108 140.114 61.282 145.881 68.432 128.96H79.144Z" fill="#06283D"/>
<path opacity="0.6" d="M79.144 128.96C79.144 128.96 92.2376 145.46 89.778 161.242C87.7968 173.987 76.3048 191.246 76.3048 191.246L70.902 188.563C74.7102 180.932 77.9601 173.035 80.626 164.934C81.4481 162.419 81.6881 159.75 81.3277 157.128C80.9674 154.507 80.0162 152.002 78.546 149.802C71.9108 140.114 61.282 145.881 68.432 128.96H79.144Z" fill="black"/>
<path opacity="0.4" d="M85.566 139.558L83.6628 137.665C83.6628 137.816 87.3496 160.576 88.3844 166.972C88.9951 165.104 89.4627 163.191 89.7832 161.252C91 153.509 88.4572 145.6 85.566 139.558Z" fill="black"/>
<path d="M84.9887 128.96C84.9887 128.96 100.755 149.698 101.202 162.131C101.572 172.531 84.0423 192.681 84.0423 192.681L78.9463 189.384C78.9463 189.384 89.2059 175.074 91.7903 163.384C90.7919 151.799 69.6799 128.96 69.6799 128.96H84.9887Z" fill="#06283D"/>
<path opacity="0.6" d="M84.9887 128.96C84.9887 128.96 100.755 149.698 101.202 162.131C101.572 172.531 84.0423 192.681 84.0423 192.681L78.9463 189.384C78.9463 189.384 89.2059 175.074 91.7903 163.384C90.7919 151.799 69.6799 128.96 69.6799 128.96H84.9887Z" fill="black"/>
<path d="M65.4836 104.213C63.7988 104.614 62.1816 110.739 62.1816 110.739L68.77 115.139C68.77 115.139 70.9644 110.292 70.1948 108.171C69.3992 105.961 67.6 103.709 65.4836 104.213Z" fill="#06283D"/>
<path opacity="0.2" d="M66.7733 108.16L66.3157 113.501L68.7649 115.144C69.4411 113.621 69.9418 112.027 70.2573 110.391L66.7733 108.16Z" fill="black"/>
<path d="M86.9388 104.333C86.9388 104.333 88.8836 105.014 84.9888 128.955H68.4216C68.7024 122.195 68.7076 118.035 65.4836 104.213C67.8034 103.735 70.1548 103.426 72.5192 103.288C75.0242 103.108 77.5387 103.108 80.0436 103.288C83.278 103.584 86.9388 104.333 86.9388 104.333Z" fill="#06283D"/>
<path d="M88.6235 108.16C88.9979 109.2 89.3931 110.318 89.8091 111.394C90.2251 112.471 90.6203 113.578 91.0415 114.67L92.3155 117.936L92.6379 118.752L92.8043 119.158L92.8823 119.361C92.8823 119.397 92.8823 119.397 92.8823 119.392C92.7873 119.258 92.6627 119.148 92.5183 119.07C92.3126 118.949 92.0807 118.879 91.8423 118.867C91.6442 118.861 91.4472 118.898 91.2651 118.976C91.0259 119.085 91.0259 119.132 91.0311 119.127C91.0743 119.092 91.1128 119.052 91.1455 119.007C91.4333 118.629 91.6824 118.223 91.8891 117.796C92.1335 117.317 92.3675 116.808 92.6015 116.293C93.0591 115.253 93.4803 114.176 93.9015 113.09C94.3227 112.003 94.7231 110.906 95.1131 109.798L96.2987 106.48L98.3007 107C97.9055 109.372 97.3959 111.68 96.7823 114.031C96.4859 115.201 96.1375 116.36 95.7423 117.53C95.5447 118.118 95.3263 118.7 95.0767 119.298C94.8165 119.947 94.4962 120.571 94.1199 121.16C93.9816 121.358 93.8286 121.546 93.6623 121.722C93.3967 122.008 93.0745 122.237 92.7159 122.392C92.3977 122.529 92.0531 122.593 91.7071 122.58C91.3195 122.565 90.9419 122.453 90.6099 122.252C90.2181 122.008 89.893 121.67 89.6635 121.269C89.5855 121.134 89.5179 120.999 89.4711 120.9L89.3723 120.702L89.1747 120.297L88.7795 119.491C88.2595 118.409 87.7395 117.317 87.2871 116.22C86.8347 115.123 86.3563 114.01 85.9091 112.892C85.4619 111.774 85.0615 110.656 84.6819 109.45L88.6235 108.16Z" fill="#E58A7B"/>
<path d="M86.9387 104.333C88.9303 104.806 91.1715 110.692 91.1715 110.692L85.2487 115.731C85.2487 115.731 81.4163 109.314 82.1911 107.198C82.9971 104.993 84.3387 103.714 86.9387 104.333Z" fill="#06283D"/>
<path d="M97.24 104.619L99.32 102.882L100.766 105.134L99.6996 107.011C99.6996 107.011 98.0044 108.571 96.5068 107.775C96.2691 107.241 96.2121 106.644 96.3444 106.074C96.4767 105.505 96.7911 104.994 97.24 104.619Z" fill="#E58A7B"/>
<path d="M103.074 102.887L102.918 103.454L99.6268 104.005L99.3044 102.882L103.074 102.887Z" fill="#E58A7B"/>
<path d="M84.4479 192.946L78.5095 189.109L79.5755 187.257L86.2471 191.36L84.4479 192.946Z" fill="#06283D"/>
<path d="M74.36 196.004C73.839 195.94 73.3384 195.763 72.8936 195.484C72.8753 195.477 72.8594 195.465 72.8481 195.45C72.8369 195.434 72.8308 195.415 72.8308 195.395C72.8308 195.376 72.8369 195.357 72.8481 195.341C72.8594 195.325 72.8753 195.313 72.8936 195.307C73.0548 195.255 74.4537 194.823 74.8593 195.156C74.9048 195.194 74.9395 195.243 74.9596 195.299C74.9797 195.355 74.9846 195.415 74.9736 195.473C74.9664 195.567 74.9354 195.657 74.8835 195.735C74.8317 195.814 74.7607 195.877 74.6772 195.921C74.5799 195.974 74.471 196.002 74.36 196.004ZM73.19 195.432C73.84 195.765 74.36 195.884 74.6096 195.759C74.664 195.729 74.7097 195.686 74.7425 195.633C74.7753 195.58 74.794 195.52 74.7968 195.458C74.7968 195.375 74.7968 195.338 74.75 195.317C74.5316 195.141 73.7516 195.276 73.1796 195.432H73.19Z" fill="#263238"/>
<path d="M72.93 195.52C72.9026 195.52 72.8765 195.509 72.8572 195.489C72.8495 195.475 72.8455 195.458 72.8455 195.442C72.8455 195.426 72.8495 195.41 72.8572 195.395C72.8572 195.349 73.1952 194.22 73.7256 193.965C73.7934 193.934 73.867 193.918 73.9415 193.918C74.0159 193.918 74.0895 193.934 74.1572 193.965C74.2303 193.988 74.2935 194.035 74.3368 194.098C74.3802 194.161 74.4012 194.237 74.3965 194.314C74.3601 194.782 73.4085 195.427 72.9717 195.536L72.93 195.52ZM73.9389 194.101C73.8883 194.102 73.8386 194.115 73.7933 194.137C73.4709 194.293 73.2056 194.901 73.0756 195.271C73.5332 195.078 74.1625 194.569 74.1833 194.283C74.1833 194.236 74.1832 194.179 74.0636 194.127C74.0247 194.106 73.9825 194.092 73.9389 194.085V194.101Z" fill="#263238"/>
<path d="M81.7804 198.25C81.1928 198.25 80.3764 197.496 79.9292 197.033C79.9178 197.018 79.9116 196.998 79.9116 196.979C79.9116 196.959 79.9178 196.94 79.9292 196.924C79.9395 196.907 79.9541 196.894 79.9714 196.885C79.9888 196.875 80.0084 196.871 80.028 196.872C80.236 196.872 82.0404 197.143 82.2952 197.652C82.3222 197.698 82.3364 197.75 82.3364 197.803C82.3364 197.856 82.3222 197.908 82.2952 197.954C82.257 198.033 82.1992 198.102 82.1274 198.152C82.0555 198.203 81.9719 198.235 81.8844 198.245L81.7804 198.25ZM80.2724 197.106C80.9276 197.741 81.5048 198.094 81.8324 198.053C81.8898 198.045 81.9444 198.024 81.9916 197.99C82.0387 197.957 82.0769 197.912 82.1028 197.86C82.1144 197.842 82.1206 197.822 82.1206 197.8C82.1206 197.779 82.1144 197.758 82.1028 197.741C81.9676 197.46 81.0056 197.221 80.2724 197.106Z" fill="#263238"/>
<path d="M80.3295 197.08C80.2128 197.083 80.096 197.075 79.9811 197.054C79.965 197.052 79.9499 197.045 79.9371 197.035C79.9244 197.025 79.9144 197.012 79.9083 196.997C79.9005 196.981 79.8965 196.965 79.8965 196.947C79.8965 196.93 79.9005 196.913 79.9083 196.898C79.9395 196.862 80.6415 196.014 81.3071 195.957C81.4955 195.942 81.6822 196.002 81.8271 196.123C82.0299 196.3 82.0195 196.456 81.9675 196.555C81.8375 196.908 80.9379 197.08 80.3295 197.08ZM80.1943 196.888C80.7767 196.919 81.7075 196.726 81.8271 196.472C81.8271 196.472 81.8687 196.388 81.7335 196.274C81.6797 196.227 81.6169 196.192 81.5489 196.17C81.4809 196.149 81.4092 196.142 81.3383 196.149C80.8899 196.274 80.4907 196.534 80.1943 196.893V196.888Z" fill="#263238"/>
<path d="M73.0704 194.958L68.6608 193.71C68.5848 193.687 68.503 193.693 68.431 193.727C68.359 193.76 68.302 193.819 68.2708 193.892L66.7836 197.236C66.7487 197.322 66.7323 197.414 66.7355 197.506C66.7387 197.599 66.7614 197.689 66.8022 197.772C66.843 197.855 66.9009 197.929 66.972 197.988C67.0432 198.047 67.1261 198.09 67.2152 198.115C68.7752 198.52 69.524 198.635 71.4636 199.191C72.6596 199.524 74.3652 200.143 76.0136 200.611C77.662 201.079 78.2132 199.472 77.5736 199.129C74.6824 197.6 74.4536 196.529 73.6632 195.385C73.5217 195.178 73.3119 195.027 73.0704 194.958Z" fill="#06283D"/>
<path d="M80.0487 196.425L76.2839 193.825C76.2201 193.778 76.1414 193.757 76.0628 193.765C75.9842 193.772 75.9112 193.809 75.8575 193.867L73.3615 196.55C73.3007 196.619 73.2553 196.701 73.2284 196.789C73.2015 196.877 73.1937 196.97 73.2055 197.062C73.2173 197.153 73.2485 197.241 73.2969 197.32C73.3453 197.398 73.4099 197.465 73.4863 197.517C74.8123 198.406 75.4987 198.765 77.1575 199.914C78.1975 200.621 80.2099 202.192 81.6139 203.169C83.0179 204.147 84.0631 202.805 83.5639 202.275C81.3279 199.888 80.8391 198.391 80.4699 197.033C80.4058 196.787 80.2566 196.572 80.0487 196.425Z" fill="#06283D"/>
<path d="M76.9965 191.589L70.2104 188.214L70.9124 186.373L78.1612 189.93L76.9965 191.589Z" fill="#06283D"/>
<path d="M68.1719 127.982L67.5999 129.48C67.5427 129.594 67.6779 129.714 67.8703 129.714H85.0719C85.2227 129.714 85.3475 129.641 85.3579 129.548L85.5035 128.06C85.5035 127.962 85.3839 127.873 85.2227 127.873H68.4423C68.3918 127.868 68.3409 127.876 68.2938 127.895C68.2468 127.914 68.205 127.944 68.1719 127.982Z" fill="#06283D"/>
<path opacity="0.4" d="M68.1719 127.982L67.5999 129.48C67.5427 129.594 67.6779 129.714 67.8703 129.714H85.0719C85.2227 129.714 85.3475 129.641 85.3579 129.548L85.5035 128.06C85.5035 127.962 85.3839 127.873 85.2227 127.873H68.4423C68.3918 127.868 68.3409 127.876 68.2938 127.895C68.2468 127.914 68.205 127.944 68.1719 127.982Z" fill="white"/>
<path d="M70.8811 129.86H70.4287C70.3403 129.86 70.2727 129.813 70.2779 129.756L70.4911 127.827C70.4911 127.775 70.5743 127.728 70.6627 127.728H71.1151C71.2035 127.728 71.2711 127.775 71.2659 127.827L71.0527 129.756C71.0475 129.813 70.9695 129.86 70.8811 129.86Z" fill="#06283D"/>
<path d="M81.4892 129.86H81.042C80.9536 129.86 80.886 129.813 80.8912 129.756L81.0992 127.827C81.0992 127.775 81.1876 127.728 81.276 127.728H81.7232C81.8116 127.728 81.8843 127.775 81.8739 127.827L81.666 129.756C81.64 129.813 81.5828 129.86 81.4892 129.86Z" fill="#06283D"/>
<g style="mix-blend-mode:multiply">
<path d="M70.486 217.922C78.1797 217.922 84.4168 217.47 84.4168 216.913C84.4168 216.356 78.1797 215.904 70.486 215.904C62.7922 215.904 56.5552 216.356 56.5552 216.913C56.5552 217.47 62.7922 217.922 70.486 217.922Z" fill="#F5F5F5"/>
</g>
<path d="M78.9724 215.488C76.5076 214.771 73.7725 213.85 72.1189 212.888C72.0721 212.857 72.0201 212.841 71.9733 212.815V201.656H76.96C77.3386 201.634 77.6943 201.468 77.9544 201.192C78.2145 200.916 78.3594 200.551 78.3594 200.172C78.3594 199.792 78.2145 199.427 77.9544 199.151C77.6943 198.876 77.3386 198.709 76.96 198.687H71.9993V147.821H69.004V198.687H64.0484C63.8461 198.675 63.6434 198.704 63.4529 198.774C63.2624 198.843 63.088 198.95 62.9405 199.089C62.793 199.228 62.6754 199.396 62.5951 199.582C62.5148 199.768 62.4733 199.969 62.4733 200.172C62.4733 200.374 62.5148 200.575 62.5951 200.761C62.6754 200.947 62.793 201.115 62.9405 201.254C63.088 201.393 63.2624 201.5 63.4529 201.569C63.6434 201.639 63.8461 201.668 64.0484 201.656H69.004V212.8C68.9572 212.8 68.9104 212.841 68.8636 212.873C67.184 213.85 64.4696 214.771 62.0048 215.473C61.8383 215.523 61.6954 215.631 61.6018 215.778C61.5083 215.924 61.4703 216.1 61.4948 216.272C61.5193 216.444 61.6047 216.602 61.7354 216.717C61.8662 216.831 62.0337 216.895 62.2076 216.897H78.7696C78.9359 216.886 79.0932 216.818 79.2153 216.705C79.3374 216.591 79.417 216.44 79.4407 216.275C79.4645 216.11 79.4309 215.942 79.3457 215.799C79.2605 215.655 79.1287 215.546 78.9724 215.488Z" fill="#E0E0E0"/>
<path d="M79.7368 142.641H61.2456C59.758 142.641 58.552 143.847 58.552 145.335V150.831C58.552 152.319 59.758 153.525 61.2456 153.525H79.7368C81.2244 153.525 82.4304 152.319 82.4304 150.831V145.335C82.4304 143.847 81.2244 142.641 79.7368 142.641Z" fill="#06283D"/>
<path d="M61.074 153.53V154.476C61.074 155.256 61.9216 155.891 62.9616 155.891H78.0416C79.0816 155.891 79.9292 155.256 79.9292 154.476V153.53H61.074Z" fill="#06283D"/>
<path opacity="0.3" d="M61.074 153.53V154.476C61.074 155.256 61.9216 155.891 62.9616 155.891H78.0416C79.0816 155.891 79.9292 155.256 79.9292 154.476V153.53H61.074Z" fill="white"/>
</g>
<defs>
<filter id="filter0_i_918_225" x="0" y="0" width="260" height="264" filterUnits="userSpaceOnUse" color-interpolation-filters="sRGB">
<feFlood flood-opacity="0" result="BackgroundImageFix"/>
<feBlend mode="normal" in="SourceGraphic" in2="BackgroundImageFix" result="shape"/>
<feColorMatrix in="SourceAlpha" type="matrix" values="0 0 0 0 0 0 0 0 0 0 0 0 0 0 0 0 0 0 127 0" result="hardAlpha"/>
<feOffset dy="4"/>
<feGaussianBlur stdDeviation="2"/>
<feComposite in2="hardAlpha" operator="arithmetic" k2="-1" k3="1"/>
<feColorMatrix type="matrix" values="0 0 0 0 0 0 0 0 0 0 0 0 0 0 0 0 0 0 0.25 0"/>
<feBlend mode="normal" in2="shape" result="effect1_innerShadow_918_225"/>
</filter>
</defs>
</svg>
